<?xml version="1.0" encoding="utf-8"?>
<!-- Generator: Adobe Illustrator 19.2.1, SVG Export Plug-In . SVG Version: 6.00 Build 0)  -->
<svg version="1.1" id="Lager_1" xmlns="http://www.w3.org/2000/svg" xmlns:xlink="http://www.w3.org/1999/xlink" x="0px" y="0px"
	 viewBox="0 0 199.7 69.5" style="enable-background:new 0 0 199.7 69.5;" xml:space="preserve">
<style type="text/css">
	.st0{fill:#FFFFFF;}
	.st1{fill:#CDDCD9;}
	.st2{opacity:0.15;fill:url(#SVGID_1_);}
	.st3{opacity:0.15;fill:url(#SVGID_2_);}
	.st4{fill:#FFE83E;}
	.st5{opacity:0.15;fill:url(#SVGID_3_);}
</style>
<rect x="32.2" y="40.7" class="st0" width="9.2" height="6.7"/>
<rect x="158.3" y="40.7" class="st0" width="9.2" height="6.7"/>
<polygon class="st0" points="80.2,20.9 85.2,29.1 85.2,45.5 114.5,45.5 114.5,29.1 119.5,20.9 "/>
<g>
	<rect x="93.2" y="20.9" class="st1" width="13.3" height="8.2"/>
	<polygon class="st1" points="108.4,29.1 108.4,20.9 117.7,20.9 112.6,29.1 	"/>
	<polygon class="st1" points="91.4,29.1 91.4,20.9 82,20.9 87.1,29.1 	"/>
</g>
<polygon class="st0" points="80.2,20.9 119.5,20.9 114.5,16.5 85.2,16.5 "/>
<rect x="98.4" y="-6.3" transform="matrix(4.483151e-11 1 -1 4.483151e-11 101.3156 -98.3943)" class="st0" width="2.9" height="15.6"/>
<rect x="98.9" y="0" class="st0" width="2" height="13.8"/>
<rect x="85.2" y="6.3" class="st0" width="1.1" height="12.1"/>
<rect x="113.4" y="6.3" class="st0" width="1.1" height="12.1"/>
<circle class="st0" cx="85.8" cy="5.7" r="1.3"/>
<circle class="st0" cx="114" cy="5.7" r="1.3"/>
<rect x="93.1" y="13.1" class="st0" width="13.5" height="6.1"/>
<rect x="62.1" y="40.7" class="st0" width="75.4" height="4.8"/>
<linearGradient id="SVGID_1_" gradientUnits="userSpaceOnUse" x1="99.856" y1="45.4946" x2="99.856" y2="40.6863">
	<stop  offset="0" style="stop-color:#8C8C8C"/>
	<stop  offset="1" style="stop-color:#FFFFFF"/>
</linearGradient>
<rect x="62.1" y="40.7" class="st2" width="75.4" height="4.8"/>
<linearGradient id="SVGID_2_" gradientUnits="userSpaceOnUse" x1="99.855" y1="40.6863" x2="99.855" y2="34.914">
	<stop  offset="0" style="stop-color:#8C8C8C"/>
	<stop  offset="1" style="stop-color:#FFFFFF"/>
</linearGradient>
<rect x="85.2" y="34.9" class="st3" width="29.3" height="5.8"/>
<polygon class="st4" points="41.4,17 51.3,17 49,13.8 51.3,10.6 41.4,10.6 "/>
<rect x="40.6" y="10.6" class="st0" width="0.7" height="34.9"/>
<polygon class="st4" points="159.1,17 168.9,17 166.7,13.8 168.9,10.6 159.1,10.6 "/>
<rect x="158.3" y="10.6" class="st0" width="0.7" height="34.9"/>
<rect x="29.3" y="45.4" class="st0" width="141.2" height="11.5"/>
<g>
	<rect x="78.3" y="48.3" class="st1" width="6.3" height="8.6"/>
	<rect x="105.9" y="48.3" class="st1" width="6.3" height="8.6"/>
	<rect x="115.2" y="48.3" class="st1" width="6.3" height="8.6"/>
	<rect x="32.2" y="48.3" class="st1" width="6.3" height="8.6"/>
	<rect x="69.1" y="48.3" class="st1" width="6.3" height="8.6"/>
	<rect x="87.5" y="48.3" class="st1" width="6.3" height="8.6"/>
	<rect x="96.7" y="48.3" class="st1" width="6.3" height="8.6"/>
	<rect x="59.8" y="48.3" class="st1" width="6.3" height="8.6"/>
	<rect x="50.6" y="48.3" class="st1" width="6.3" height="8.6"/>
	<rect x="41.4" y="48.3" class="st1" width="6.3" height="8.6"/>
	<rect x="161.3" y="48.3" class="st1" width="6.3" height="8.6"/>
	<rect x="152" y="48.3" class="st1" width="6.3" height="8.6"/>
	<rect x="142.8" y="48.3" class="st1" width="6.3" height="8.6"/>
	<rect x="133.6" y="48.3" class="st1" width="6.3" height="8.6"/>
	<rect x="124.4" y="48.3" class="st1" width="6.3" height="8.6"/>
</g>
<polygon class="st0" points="192.3,69.5 7.4,69.5 0,63.8 199.7,63.8 "/>
<linearGradient id="SVGID_3_" gradientUnits="userSpaceOnUse" x1="99.855" y1="63.844" x2="99.855" y2="69.5396">
	<stop  offset="0" style="stop-color:#8C8C8C"/>
	<stop  offset="1" style="stop-color:#FFFFFF"/>
</linearGradient>
<polygon class="st5" points="192.3,69.5 7.4,69.5 0,63.8 199.7,63.8 "/>
<rect y="56.9" class="st0" width="199.7" height="7.1"/>
</svg>
