<?xml version="1.0" encoding="utf-8"?>
<!-- Generator: Adobe Illustrator 19.2.1, SVG Export Plug-In . SVG Version: 6.00 Build 0)  -->
<svg version="1.1" id="Lager_1" xmlns="http://www.w3.org/2000/svg" xmlns:xlink="http://www.w3.org/1999/xlink" x="0px" y="0px"
	 viewBox="0 0 139 44.3" style="enable-background:new 0 0 139 44.3;" xml:space="preserve">
<style type="text/css">
	.st0{fill:#DB6E65;}
	.st1{fill:#E57567;}
	.st2{fill:#FFFFFF;}
	.st3{fill:#243A3A;}
	.st4{fill:#CC665E;}
</style>
<g>
	<polygon class="st0" points="48,9 63,0 105.8,0 105.8,11 48,11 	"/>
	
		<rect x="9.4" y="5.6" transform="matrix(-1 -4.284185e-11 4.284185e-11 -1 38.6478 17.4058)" class="st0" width="19.9" height="6.2"/>
	<path class="st1" d="M0,37.6l8.2,3.2h117.2l13.6-3V7.5c0,0-101.5,0-133.5,0"/>
	<polygon class="st2" points="0.4,35.3 139,35.3 139,33.3 0.8,33.3 	"/>
	<circle class="st3" cx="35.7" cy="37.9" r="6.4"/>
	<circle class="st3" cx="99.8" cy="37.9" r="6.4"/>
	
		<rect x="68" y="13.6" transform="matrix(-1 -4.491131e-11 4.491131e-11 -1 142.8496 51.3183)" class="st4" width="6.9" height="24.1"/>
	
		<rect x="77.9" y="13.6" transform="matrix(-1 -4.359059e-11 4.359059e-11 -1 162.6578 51.3183)" class="st4" width="6.9" height="24.1"/>
	
		<rect x="9.4" y="13.6" transform="matrix(-1 -4.649671e-11 4.649671e-11 -1 25.725 51.3183)" class="st4" width="6.9" height="24.1"/>
	
		<rect x="19.3" y="13.6" transform="matrix(-1 -4.649671e-11 4.649671e-11 -1 45.5332 51.3183)" class="st4" width="6.9" height="24.1"/>
	
		<rect x="109.4" y="13.6" transform="matrix(-1 -4.517554e-11 4.517554e-11 -1 225.5883 51.3183)" class="st4" width="6.9" height="24.1"/>
	
		<rect x="119.3" y="13.6" transform="matrix(-1 -4.517554e-11 4.517554e-11 -1 245.3965 51.3183)" class="st4" width="6.9" height="24.1"/>
	
		<rect x="87.8" y="13.6" transform="matrix(-1 -4.492152e-11 4.492152e-11 -1 194.0455 41.1709)" class="st4" width="18.5" height="13.9"/>
	
		<rect x="50.6" y="13.6" transform="matrix(-1 -4.437174e-11 4.437174e-11 -1 115.4274 41.1709)" class="st4" width="14.2" height="13.9"/>
	<polygon class="st4" points="1.3,30 6.8,30 6.8,13 4.3,13 	"/>
	
		<rect x="29.3" y="13.6" transform="matrix(-1 -4.467283e-11 4.467283e-11 -1 76.8415 41.1709)" class="st4" width="18.3" height="13.9"/>
	
		<rect x="129.2" y="13.6" transform="matrix(-1 -4.444990e-11 4.444990e-11 -1 264.8261 41.1709)" class="st4" width="6.5" height="13.9"/>
</g>
</svg>
