<?xml version="1.0" encoding="utf-8"?>
<!-- Generator: Adobe Illustrator 19.2.1, SVG Export Plug-In . SVG Version: 6.00 Build 0)  -->
<svg version="1.1" xmlns="http://www.w3.org/2000/svg" xmlns:xlink="http://www.w3.org/1999/xlink" x="0px" y="0px"
	 viewBox="0 0 1920 1080" style="enable-background:new 0 0 1920 1080;" xml:space="preserve">
<style type="text/css">
	.st0{display:none;}
	.st1{display:inline;fill:#FFFFFF;}
	.st2{display:inline;}
	.st3{fill:#FFEFA1;}
	.st4{display:inline;opacity:0.15;fill:url(#SVGID_1_);}
	.st5{display:inline;opacity:0.15;fill:url(#SVGID_2_);}
	.st6{display:inline;fill:#FFE83E;}
	.st7{display:inline;opacity:0.15;fill:url(#SVGID_3_);}
	.st8{fill:#FDC382;}
	.st9{display:inline;opacity:0.15;fill:url(#SVGID_4_);}
	.st10{display:inline;opacity:0.15;fill:url(#SVGID_5_);}
	.st11{display:inline;fill:#E57567;}
	.st12{display:inline;opacity:0.15;fill:url(#SVGID_6_);}
	.st13{fill:#CDDCD9;}
	.st14{display:inline;opacity:0.15;fill:url(#SVGID_7_);}
	.st15{display:inline;opacity:0.15;fill:url(#SVGID_8_);}
	.st16{display:inline;fill:#5A9596;}
	.st17{display:inline;opacity:0.15;fill:url(#SVGID_9_);}
	.st18{display:inline;opacity:0.15;fill:url(#SVGID_10_);}
	.st19{display:inline;opacity:0.15;fill:url(#SVGID_11_);}
	.st20{display:inline;fill:#535DA5;}
	.st21{display:inline;opacity:0.15;fill:url(#SVGID_12_);}
	.st22{fill:#4A617C;}
	.st23{fill:#FFFFFF;}
	.st24{fill:url(#SVGID_13_);}
	.st25{fill:url(#SVGID_14_);}
	.st26{fill:url(#SVGID_15_);}
	.st27{fill:url(#SVGID_16_);}
	.st28{fill:url(#SVGID_17_);}
	.st29{fill:#2B3C51;}
	.st30{fill:#091323;}
	.st31{fill:#0C1830;}
	.st32{fill:#364D60;}
	.st33{fill:#3A5876;}
	.st34{fill:#304559;}
	.st35{fill:none;stroke:#0C1830;stroke-miterlimit:10;}
	.st36{fill:none;stroke:#0C1830;stroke-width:2;stroke-miterlimit:10;}
	.st37{fill:#66542D;}
	.st38{fill:#FFE83E;}
	.st39{fill:#F8DEC5;}
	.st40{fill:url(#SVGID_18_);}
	.st41{fill:url(#SVGID_19_);}
	.st42{fill:url(#SVGID_20_);}
	.st43{fill:url(#SVGID_21_);}
	.st44{fill:url(#SVGID_22_);}
	.st45{fill:url(#SVGID_23_);}
	.st46{fill:#E57567;}
	.st47{fill:#F27572;}
	.st48{fill:url(#SVGID_24_);}
	.st49{fill:none;stroke:#E57567;stroke-miterlimit:10;}
	.st50{fill:none;stroke:#E57567;stroke-width:2;stroke-miterlimit:10;}
	.st51{fill:url(#SVGID_25_);}
	.st52{fill:url(#SVGID_26_);}
	.st53{fill:url(#SVGID_27_);}
	.st54{fill:url(#SVGID_28_);}
	.st55{fill:url(#SVGID_29_);}
	.st56{fill:#2D1A1A;}
	.st57{fill:#D7E2E1;}
	.st58{fill:url(#SVGID_30_);}
	.st59{fill:url(#SVGID_31_);}
	.st60{fill:url(#SVGID_32_);}
	.st61{fill:url(#SVGID_33_);}
	.st62{fill:url(#SVGID_34_);}
	.st63{fill:url(#SVGID_35_);}
	.st64{fill:#548989;}
	.st65{fill:#5A9596;}
	.st66{fill:url(#SVGID_36_);}
	.st67{fill:none;stroke:#5A9596;stroke-miterlimit:10;}
	.st68{fill:none;stroke:#5A9596;stroke-width:2;stroke-miterlimit:10;}
	.st69{fill:url(#SVGID_37_);}
	.st70{fill:url(#SVGID_38_);}
	.st71{font-family:'FuturaStd-Medium';}
	.st72{font-size:16.0424px;}
	.st73{fill:url(#SVGID_39_);}
	.st74{fill:none;}
	.st75{fill:url(#SVGID_40_);}
	.st76{fill:url(#SVGID_41_);}
	.st77{fill:#65A5A5;}
	.st78{fill:#243A3A;}
	.st79{fill:#C1CCE2;}
	.st80{fill:url(#SVGID_42_);}
	.st81{fill:url(#SVGID_43_);}
	.st82{fill:url(#SVGID_44_);}
	.st83{fill:url(#SVGID_45_);}
	.st84{fill:url(#SVGID_46_);}
	.st85{fill:#B8C7DC;}
	.st86{fill:url(#SVGID_47_);}
	.st87{fill:#475789;}
	.st88{fill:#4C5C96;}
	.st89{fill:#322F76;}
	.st90{fill:url(#SVGID_48_);}
	.st91{fill:none;stroke:#4C5C96;stroke-miterlimit:10;}
	.st92{fill:none;stroke:#4C5C96;stroke-width:2;stroke-miterlimit:10;}
	.st93{fill:url(#SVGID_49_);}
	.st94{fill:#665F23;}
	.st95{fill:#EEFF88;}
	.st96{fill:url(#SVGID_50_);}
	.st97{fill:url(#SVGID_51_);}
	.st98{fill:url(#SVGID_52_);}
	.st99{fill:url(#SVGID_53_);}
	.st100{fill:#5568A5;}
	.st101{fill:#535DA5;}
	.st102{fill:#DB6E65;}
	.st103{fill:#CC665E;}
	.st104{font-family:'FuturaStd-BoldOblique';}
	.st105{font-size:24.7858px;}
	.st106{font-size:114.8371px;}
</style>
<g id="sky">
</g>
<g id="skyline">
</g>
<g id="Water">
</g>
<g id="Boat" class="st0">
	<rect x="511.7" y="881.2" class="st1" width="9.2" height="6.7"/>
	<rect x="637.8" y="881.2" class="st1" width="9.2" height="6.7"/>
	<polygon class="st1" points="559.7,861.4 564.7,869.6 564.7,886 594,886 594,869.6 599,861.4 	"/>
	<g class="st2">
		<rect x="572.7" y="861.4" class="st13" width="13.3" height="8.2"/>
		<polygon class="st13" points="587.8,869.6 587.8,861.4 597.2,861.4 592.1,869.6 		"/>
		<polygon class="st13" points="570.8,869.6 570.8,861.4 561.5,861.4 566.6,869.6 		"/>
	</g>
	<polygon class="st1" points="559.7,861.4 599,861.4 594,857 564.7,857 	"/>
	
		<rect x="577.9" y="834.2" transform="matrix(4.483151e-11 1 -1 4.483151e-11 1421.299 262.6099)" class="st1" width="2.9" height="15.6"/>
	<rect x="578.4" y="840.5" class="st1" width="2" height="13.8"/>
	<rect x="564.7" y="846.8" class="st1" width="1.1" height="12.1"/>
	<rect x="592.9" y="846.8" class="st1" width="1.1" height="12.1"/>
	<circle class="st1" cx="565.2" cy="846.2" r="1.3"/>
	<circle class="st1" cx="593.4" cy="846.2" r="1.3"/>
	<rect x="572.6" y="853.6" class="st1" width="13.5" height="6.1"/>
	<rect x="541.6" y="881.2" class="st1" width="75.4" height="4.8"/>
	<linearGradient id="SVGID_1_" gradientUnits="userSpaceOnUse" x1="579.3455" y1="885.9884" x2="579.3455" y2="881.1801">
		<stop  offset="0" style="stop-color:#FDC382"/>
		<stop  offset="1" style="stop-color:#FFFFFF"/>
	</linearGradient>
	<rect x="541.6" y="881.2" class="st4" width="75.4" height="4.8"/>
	<linearGradient id="SVGID_2_" gradientUnits="userSpaceOnUse" x1="579.3445" y1="881.1801" x2="579.3445" y2="875.4078">
		<stop  offset="0" style="stop-color:#FDC382"/>
		<stop  offset="1" style="stop-color:#FFFFFF"/>
	</linearGradient>
	<rect x="564.7" y="875.4" class="st5" width="29.3" height="5.8"/>
	<polygon class="st16" points="520.9,857.5 530.8,857.5 528.5,854.3 530.8,851.1 520.9,851.1 	"/>
	<rect x="520.1" y="851.1" class="st1" width="0.7" height="34.9"/>
	<polygon class="st16" points="638.6,857.5 648.4,857.5 646.2,854.3 648.4,851.1 638.6,851.1 	"/>
	<rect x="637.8" y="851.1" class="st1" width="0.7" height="34.9"/>
	<rect x="508.7" y="885.9" class="st1" width="141.2" height="11.5"/>
	<g class="st2">
		<rect x="557.8" y="888.8" class="st13" width="6.3" height="8.6"/>
		<rect x="585.4" y="888.8" class="st13" width="6.3" height="8.6"/>
		<rect x="594.6" y="888.8" class="st13" width="6.3" height="8.6"/>
		<rect x="511.7" y="888.8" class="st13" width="6.3" height="8.6"/>
		<rect x="548.5" y="888.8" class="st13" width="6.3" height="8.6"/>
		<rect x="567" y="888.8" class="st13" width="6.3" height="8.6"/>
		<rect x="576.2" y="888.8" class="st13" width="6.3" height="8.6"/>
		<rect x="539.3" y="888.8" class="st13" width="6.3" height="8.6"/>
		<rect x="530.1" y="888.8" class="st13" width="6.3" height="8.6"/>
		<rect x="520.9" y="888.8" class="st13" width="6.3" height="8.6"/>
		<rect x="640.8" y="888.8" class="st13" width="6.3" height="8.6"/>
		<rect x="631.5" y="888.8" class="st13" width="6.3" height="8.6"/>
		<rect x="622.3" y="888.8" class="st13" width="6.3" height="8.6"/>
		<rect x="613.1" y="888.8" class="st13" width="6.3" height="8.6"/>
		<rect x="603.9" y="888.8" class="st13" width="6.3" height="8.6"/>
	</g>
	<polygon class="st1" points="671.8,910 486.9,910 479.5,904.3 679.2,904.3 	"/>
	<linearGradient id="SVGID_3_" gradientUnits="userSpaceOnUse" x1="579.3445" y1="904.3378" x2="579.3445" y2="910.0334">
		<stop  offset="0" style="stop-color:#FDC382"/>
		<stop  offset="1" style="stop-color:#FFFFFF"/>
	</linearGradient>
	<polygon class="st7" points="671.8,910 486.9,910 479.5,904.3 679.2,904.3 	"/>
	<rect x="479.5" y="897.3" class="st1" width="199.7" height="7.1"/>
</g>
<g id="slussen_centralen">
</g>
<g id="Futurniture">
	<g>
		<rect x="-2.6" y="-91.6" class="st57" width="1925.1" height="852.1"/>
		<g>
			<linearGradient id="SVGID_4_" gradientUnits="userSpaceOnUse" x1="1690.86" y1="513.4478" x2="1690.86" y2="509.3174">
				<stop  offset="0" style="stop-color:#CDDBD9"/>
				<stop  offset="1" style="stop-color:#B5CAC5"/>
			</linearGradient>
			<polygon style="fill:url(#SVGID_4_);" points="1696.8,512 1696.8,509.4 1694,512 1691.3,509.3 1688.1,512 1684.9,509.4 
				1684.9,512 1684.9,513.4 1696.8,513.4 			"/>
			<linearGradient id="SVGID_5_" gradientUnits="userSpaceOnUse" x1="1663.6913" y1="513.4478" x2="1663.6913" y2="509.3174">
				<stop  offset="0" style="stop-color:#CDDBD9"/>
				<stop  offset="1" style="stop-color:#B5CAC5"/>
			</linearGradient>
			<polygon style="fill:url(#SVGID_5_);" points="1669.7,512 1669.7,509.4 1666.7,512 1664,509.3 1660.8,512 1657.7,509.4 
				1657.7,512 1657.7,513.4 1669.7,513.4 			"/>
			<linearGradient id="SVGID_6_" gradientUnits="userSpaceOnUse" x1="1677.4814" y1="523.9904" x2="1677.4814" y2="519.6843">
				<stop  offset="0" style="stop-color:#CDDBD9"/>
				<stop  offset="1" style="stop-color:#B5CAC5"/>
			</linearGradient>
			<polygon style="fill:url(#SVGID_6_);" points="1684.1,522.3 1684.1,519.8 1680.8,522.3 1677.9,519.7 1674.4,522.3 1670.9,519.8 
				1670.9,522.3 1670.9,524 1684.1,524 			"/>
			<linearGradient id="SVGID_7_" gradientUnits="userSpaceOnUse" x1="899.2397" y1="757.3225" x2="899.2397" y2="442.6371">
				<stop  offset="0" style="stop-color:#CDDBD9"/>
				<stop  offset="1" style="stop-color:#B5CAC5"/>
			</linearGradient>
			<path style="fill:url(#SVGID_7_);" d="M1694.3,726.4V589.8l3-4.2h-7.3v-5.5l-2.1-9.3v-10.7l1.8-2.9l-1.8-2.9h-1.9l-6.4-6.6
				c1.5-0.8,2.6-2.4,2.6-4.3c0-2.6-2.1-4.8-4.7-4.8s-4.7,2.1-4.7,4.8c0,1.9,1.1,3.5,2.6,4.3l-6.4,6.6h-1.9l-1.8,2.9l1.8,2.9v10.7
				l-2.1,9.3v5.5h-7.3l3,4.2v81.4h-141.2v-6.3c0-0.8-0.4-1.6-1.1-2v-16.2c0.7-0.2,1.5-0.5,2.1-1c0.5-0.4,0.9-0.9,1.2-1.5
				c-1.8,0.6-3.9,0-5.2-1.6c-1.3-1.6-1.4-3.8-0.5-5.5c-0.6,0.2-1.2,0.5-1.7,0.9c-2.1,1.7-2.4,4.9-0.7,7c0.6,0.8,1.4,1.3,2.2,1.6
				v16.4c-0.6,0.4-1.1,1.2-1.1,2v6.3h-0.1l-10.4,16.3v39h-18.3v-58.2h-19.8v-18.1h-193.7v-26.6h20.6l-5-7.3l5-7.3h-20.6h-2.2v41.1
				h-91.6v-57.2l-3.6-6.3v-6.4l-1.1-2.9l-1.1,2.9v5.5h-3.6v-16.1h-1.3v-13.5c0-3.7-2.2-6.9-7.2-8v-1.8c0-1.4-0.4-2.6-1.8-2.6
				c-1.3,0-1.8,1.1-1.8,2.6v1.8c-4.9,1.1-7.2,4.2-7.2,8v13.5h-1.3v16.1h-3.6v-5.5l-1.1-2.9l-1.1,2.9v6.4l-3.6,6.3v57.2h-68.6v18.1
				H1051v58.2h-18.5v-45.7l2.1-1.9v-3h-5.4l-25.1-16.7v-3.5h2.1l-21.8-10l1.1-2.8l-4.9-2.3v-10.6h3.3v-2l-3.5-1.8
				c0-4.9-5.2-4.6-5.2-4.6h-0.3h-0.3c0,0-5.3-0.3-5.3,4.6l-3.6,1.8v2h3.3v10.6l-4.9,2.3l1.1,2.8l-21.8,10h2.1v3.5l-25.1,16.7h-5.4v3
				l2.1,1.9v45.7h-17.3v-22.8v-37.4v-11.1c0-12.3-7.2-22.8-17.5-27.5c-0.8-5-4.5-9-9.4-10.1c1.6-0.9,2.7-2.6,2.7-4.6
				c0-2.9-2.3-5.3-5.2-5.3c-2.9,0-5.2,2.4-5.2,5.3c0,2,1.1,3.7,2.7,4.6c-4.8,1.1-8.6,5-9.4,10.1c-10.3,4.7-17.5,15.2-17.5,27.5v11.1
				h-16.5v-52h-6.1h-0.1l-4.6-84.9l-2.4,38.3l-12.7-124.9l-12.7,124.9l-2.4-38.3l-4.6,84.9h-0.1h-5.9v52h-16.7v-21.6h0
				c-0.2-10.3-7.5-18.9-17.1-20.7c-0.1-2.1-1.9-3.8-4-3.8c-2.1,0-3.8,1.7-4,3.8c-9.6,1.9-16.9,10.4-17.1,20.7h0v21.6v9.1v51h-17.7
				c0-7.3,0-14.4,0-17.4c0-7,3.7-9.6,3.7-9.6v-4.2c0,0-4.6,1.3-8.2-3.6c-3.6-5-9.9-12.2-17.3-12.2v-7l-9.9-6v-7.8h-10.7v7.8l-9.5,6
				v7c-7.8,0-14,7.3-17.5,12.2c-3.6,5-8.4,3.6-8.4,3.6v4.2c0,0,3.7,2.6,3.7,9.6c0,1.1,0,2.7,0,4.7h-16.3v-35.3
				c0-6.4-3.4-12-8.4-15.1v-5.5c0-5.5-3.1-10.3-7.6-12.6v-2.4c0-4.1-2.9-7.5-6.7-8.3v-5.2l-1.5-1.6l-1.5,1.6v5.2
				c-3.8,0.7-6.7,4.2-6.7,8.3v2.4c-4.5,2.3-7.6,7.1-7.6,12.6v5.5c-5,3.1-8.4,8.7-8.4,15.1v48h-16.5v-29.7c0-5.7-3-10.6-7.4-13.3
				v-4.8c0-4.8-2.7-9-6.7-11.1l-7.3-15.9l-7.3,15.9c-4,2-6.7,6.2-6.7,11.1v4.8c-4.4,2.7-7.4,7.6-7.4,13.3v12.6h-15.7
				c0-4.4,0-7.9,0-9.5c0-7,3.3-9.6,3.3-9.6V686c0,0-4.5,1.3-7.8-3.6c-3.4-5-9-12.2-16.5-12.2v-7l-9.1-6l-9.1,6v7
				c-7.4,0-13.1,7.3-16.5,12.2c-3.4,5-7.8,3.6-7.8,3.6v4.2c0,0,3.3,2.6,3.3,9.6c0,3.6,0,15.6,0,26.6h-16.9v-6.8
				c0-5.7-3-10.7-7.5-13.5v-4.9c0-4.9-2.8-9.2-6.8-11.2v-2.2c0-4.2-3.3-7.5-7.4-7.5s-7.4,3.4-7.4,7.5v2.2c-4,2.1-6.8,6.3-6.8,11.2
				v4.9c-4,2.5-6.8,6.7-7.4,11.7h-16.6v-21.1c0-5.7-3-10.6-7.4-13.3v-4.8c0-4.8-2.6-8.9-6.5-11c-0.2-4.1-3.4-7.3-7.4-7.3
				s-7.3,3.2-7.4,7.3c-3.9,2.1-6.5,6.2-6.5,11v4.8c-4.4,2.7-7.4,7.6-7.4,13.3v29.7h-16.5v-7.3c0-5.7-3-10.6-7.4-13.3v-6.1l-13.9-22
				l-13.9,22v6.1c-4.4,2.7-7.4,7.6-7.4,13.3v7.3h-18.1c0-7.1,0-14,0-16.9c0-7,3.3-9.6,3.3-9.6v-4.2c0,0-4.5,1.3-7.8-3.6
				c-3.4-5-9-12.2-16.5-12.2v-4.4h-3.7v-4.1H191v4.1h-3.7v4.4c-7.4,0-13.1,7.3-16.5,12.2c-3.4,5-7.8,3.6-7.8,3.6v4.2
				c0,0,3.3,2.6,3.3,9.6c0,2.9,0,9.8,0,16.9h-16.8v-29.7c0-5.7-3.4-10.6-8.4-13.3v-4.8c0-4.8-3.1-9-7.6-11.1h-0.1
				c0-4.6-3.7-8.4-8.2-8.4s-8.2,3.8-8.2,8.4h-0.1c-4.5,2-7.6,6.2-7.6,11.1v4.8c-5,2.7-8.4,7.6-8.4,13.3v60.4h34.5h13.9h16.8
				c0,0.1,0,0.2,0,0.2h60.1c0,0,0-0.1,0-0.2h77.2h42.6h1348.1l0,0h0.5l-0.5-1V726.4z M1679.1,562.7c0-1.5,1.2-2.6,2.6-2.6
				c1.4,0,2.6,1.2,2.6,2.6V575h-5.1V562.7z M1670.7,562.7c0-1.5,1.2-2.6,2.6-2.6c1.4,0,2.6,1.2,2.6,2.6V575h-5.1V562.7z M1159,593.7
				c5.1,0,9.3,4.3,9.3,9.5s-4.2,9.5-9.3,9.5s-9.3-4.3-9.3-9.5S1153.9,593.7,1159,593.7z M792.8,626.9c0-3.5,2.7-6.3,6.1-6.3
				c3.4,0,6.1,2.8,6.1,6.3c0,3.5-2.7,6.3-6.1,6.3C795.6,633.2,792.8,630.4,792.8,626.9z M799,579.3c0,0,6.2,15.1,6.2,34.9h-12.3
				C792.8,594.4,799,579.3,799,579.3z"/>
		</g>
		<linearGradient id="SVGID_8_" gradientUnits="userSpaceOnUse" x1="959.9194" y1="1111.5892" x2="959.9194" y2="757.3225">
			<stop  offset="0" style="stop-color:#CDDBD9"/>
			<stop  offset="1" style="stop-color:#B5CAC5"/>
		</linearGradient>
		<rect x="-2.6" y="757.3" style="fill:url(#SVGID_8_);" width="1925.1" height="354.3"/>
		<g>
			<polygon class="st13" points="1441.6,885 1440,883.4 1428.5,895 1416.9,883.4 1415.3,885 1426.9,896.5 1415.3,908.1 
				1416.9,909.6 1428.5,898.1 1440,909.6 1441.6,908.1 1430,896.5 			"/>
			<polygon class="st13" points="1467.6,885 1466,883.4 1454.5,895 1443,883.4 1441.4,885 1452.9,896.5 1441.4,908.1 1443,909.6 
				1454.5,898.1 1466,909.6 1467.6,908.1 1456.1,896.5 			"/>
			<polygon class="st13" points="1493.6,885 1492.1,883.4 1480.5,895 1469,883.4 1467.4,885 1479,896.5 1467.4,908.1 1469,909.6 
				1480.5,898.1 1492.1,909.6 1493.6,908.1 1482.1,896.5 			"/>
			<polygon class="st13" points="1519.7,885 1518.1,883.4 1506.6,895 1495,883.4 1493.5,885 1505,896.5 1493.5,908.1 1495,909.6 
				1506.6,898.1 1518.1,909.6 1519.7,908.1 1508.1,896.5 			"/>
			<polygon class="st13" points="1545.7,885 1544.2,883.4 1532.6,895 1521.1,883.4 1519.5,885 1531,896.5 1519.5,908.1 
				1521.1,909.6 1532.6,898.1 1544.2,909.6 1545.7,908.1 1534.2,896.5 			"/>
			<polygon class="st13" points="1571.8,885 1570.2,883.4 1558.6,895 1547.1,883.4 1545.5,885 1557.1,896.5 1545.5,908.1 
				1547.1,909.6 1558.6,898.1 1570.2,909.6 1571.8,908.1 1560.2,896.5 			"/>
			<polygon class="st13" points="1597.8,885 1596.2,883.4 1584.7,895 1573.1,883.4 1571.6,885 1583.1,896.5 1571.6,908.1 
				1573.1,909.6 1584.7,898.1 1596.2,909.6 1597.8,908.1 1586.2,896.5 			"/>
			<polygon class="st13" points="1623.8,885 1622.3,883.4 1610.7,895 1599.2,883.4 1597.6,885 1609.2,896.5 1597.6,908.1 
				1599.2,909.6 1610.7,898.1 1622.3,909.6 1623.8,908.1 1612.3,896.5 			"/>
			<polygon class="st13" points="1649.9,885 1648.3,883.4 1636.8,895 1625.2,883.4 1623.6,885 1635.2,896.5 1623.6,908.1 
				1625.2,909.6 1636.8,898.1 1648.3,909.6 1649.9,908.1 1638.3,896.5 			"/>
			<polygon class="st13" points="1675.9,885 1674.3,883.4 1662.8,895 1651.3,883.4 1649.7,885 1661.2,896.5 1649.7,908.1 
				1651.3,909.6 1662.8,898.1 1674.3,909.6 1675.9,908.1 1664.4,896.5 			"/>
			<polygon class="st13" points="1701.9,885 1700.4,883.4 1688.8,895 1677.3,883.4 1675.7,885 1687.3,896.5 1675.7,908.1 
				1677.3,909.6 1688.8,898.1 1700.4,909.6 1701.9,908.1 1690.4,896.5 			"/>
			<polygon class="st13" points="1728,885 1726.4,883.4 1714.9,895 1703.3,883.4 1701.8,885 1713.3,896.5 1701.8,908.1 
				1703.3,909.6 1714.9,898.1 1726.4,909.6 1728,908.1 1716.4,896.5 			"/>
			<polygon class="st13" points="1754,885 1752.4,883.4 1740.9,895 1729.4,883.4 1727.8,885 1739.3,896.5 1727.8,908.1 
				1729.4,909.6 1740.9,898.1 1752.4,909.6 1754,908.1 1742.5,896.5 			"/>
			<polygon class="st13" points="1780.1,885 1778.5,883.4 1766.9,895 1755.4,883.4 1753.8,885 1765.4,896.5 1753.8,908.1 
				1755.4,909.6 1766.9,898.1 1778.5,909.6 1780.1,908.1 1768.5,896.5 			"/>
			<polygon class="st13" points="1806.1,885 1804.5,883.4 1793,895 1781.4,883.4 1779.9,885 1791.4,896.5 1779.9,908.1 
				1781.4,909.6 1793,898.1 1804.5,909.6 1806.1,908.1 1794.5,896.5 			"/>
			<polygon class="st13" points="1832.1,885 1830.6,883.4 1819,895 1807.5,883.4 1805.9,885 1817.5,896.5 1805.9,908.1 
				1807.5,909.6 1819,898.1 1830.6,909.6 1832.1,908.1 1820.6,896.5 			"/>
			<polygon class="st13" points="1858.2,885 1856.6,883.4 1845.1,895 1833.5,883.4 1831.9,885 1843.5,896.5 1831.9,908.1 
				1833.5,909.6 1845.1,898.1 1856.6,909.6 1858.2,908.1 1846.6,896.5 			"/>
			<polygon class="st13" points="1884.2,885 1882.6,883.4 1871.1,895 1859.5,883.4 1858,885 1869.5,896.5 1858,908.1 1859.5,909.6 
				1871.1,898.1 1882.6,909.6 1884.2,908.1 1872.7,896.5 			"/>
			<polygon class="st13" points="1910.2,885 1908.7,883.4 1897.1,895 1885.6,883.4 1884,885 1895.6,896.5 1884,908.1 1885.6,909.6 
				1897.1,898.1 1908.7,909.6 1910.2,908.1 1898.7,896.5 			"/>
			<polyline class="st13" points="1923.2,895 1911.6,883.4 1910.1,885 1921.6,896.5 1910.1,908.1 1911.6,909.6 1923.2,898.1 			"/>
			<polygon class="st13" points="1155.2,885 1153.6,883.4 1142,895 1130.5,883.4 1128.9,885 1140.5,896.5 1128.9,908.1 
				1130.5,909.6 1142,898.1 1153.6,909.6 1155.2,908.1 1143.6,896.5 			"/>
			<polygon class="st13" points="1181.2,885 1179.6,883.4 1168.1,895 1156.5,883.4 1155,885 1166.5,896.5 1155,908.1 1156.5,909.6 
				1168.1,898.1 1179.6,909.6 1181.2,908.1 1169.7,896.5 			"/>
			<polygon class="st13" points="1207.2,885 1205.7,883.4 1194.1,895 1182.6,883.4 1181,885 1192.6,896.5 1181,908.1 1182.6,909.6 
				1194.1,898.1 1205.7,909.6 1207.2,908.1 1195.7,896.5 			"/>
			<polygon class="st13" points="1233.3,885 1231.7,883.4 1220.2,895 1208.6,883.4 1207.1,885 1218.6,896.5 1207.1,908.1 
				1208.6,909.6 1220.2,898.1 1231.7,909.6 1233.3,908.1 1221.7,896.5 			"/>
			<polygon class="st13" points="1259.3,885 1257.7,883.4 1246.2,895 1234.7,883.4 1233.1,885 1244.6,896.5 1233.1,908.1 
				1234.7,909.6 1246.2,898.1 1257.7,909.6 1259.3,908.1 1247.8,896.5 			"/>
			<polygon class="st13" points="1285.3,885 1283.8,883.4 1272.2,895 1260.7,883.4 1259.1,885 1270.7,896.5 1259.1,908.1 
				1260.7,909.6 1272.2,898.1 1283.8,909.6 1285.3,908.1 1273.8,896.5 			"/>
			<polygon class="st13" points="1311.4,885 1309.8,883.4 1298.3,895 1286.7,883.4 1285.2,885 1296.7,896.5 1285.2,908.1 
				1286.7,909.6 1298.3,898.1 1309.8,909.6 1311.4,908.1 1299.8,896.5 			"/>
			<polygon class="st13" points="1337.4,885 1335.9,883.4 1324.3,895 1312.8,883.4 1311.2,885 1322.7,896.5 1311.2,908.1 
				1312.8,909.6 1324.3,898.1 1335.9,909.6 1337.4,908.1 1325.9,896.5 			"/>
			<polygon class="st13" points="1363.5,885 1361.9,883.4 1350.3,895 1338.8,883.4 1337.2,885 1348.8,896.5 1337.2,908.1 
				1338.8,909.6 1350.3,898.1 1361.9,909.6 1363.5,908.1 1351.9,896.5 			"/>
			<polygon class="st13" points="1389.5,885 1387.9,883.4 1376.4,895 1364.8,883.4 1363.3,885 1374.8,896.5 1363.3,908.1 
				1364.8,909.6 1376.4,898.1 1387.9,909.6 1389.5,908.1 1378,896.5 			"/>
			<polygon class="st13" points="1415.5,885 1414,883.4 1402.4,895 1390.9,883.4 1389.3,885 1400.9,896.5 1389.3,908.1 
				1390.9,909.6 1402.4,898.1 1414,909.6 1415.5,908.1 1404,896.5 			"/>
			<rect x="1050.8" y="883" class="st13" width="871.6" height="2.9"/>
		</g>
		<linearGradient id="SVGID_9_" gradientUnits="userSpaceOnUse" x1="1838.0667" y1="651.4708" x2="1838.0667" y2="764.6871">
			<stop  offset="0" style="stop-color:#A3B9B0"/>
			<stop  offset="1" style="stop-color:#B5CAC5"/>
		</linearGradient>
		<rect x="1753.7" y="651.5" style="fill:url(#SVGID_9_);" width="168.8" height="113.2"/>
		<g>
			<g>
				<path class="st13" d="M1780.3,703.4c0-2.8-2.3-5.1-5.1-5.1c-2.8,0-5.1,2.3-5.1,5.1v16h10.2V703.4z"/>
				<path class="st13" d="M1832.8,703.4c0-2.8-2.3-5.1-5.1-5.1c-2.8,0-5.1,2.3-5.1,5.1v16h10.2V703.4z"/>
				<path class="st13" d="M1859,703.4c0-2.8-2.3-5.1-5.1-5.1c-2.8,0-5.1,2.3-5.1,5.1v16h10.2V703.4z"/>
				<path class="st13" d="M1885.3,703.4c0-2.8-2.3-5.1-5.1-5.1c-2.8,0-5.1,2.3-5.1,5.1v16h10.2V703.4z"/>
				<path class="st13" d="M1806.5,703.4c0-2.8-2.3-5.1-5.1-5.1c-2.8,0-5.1,2.3-5.1,5.1v16h10.2V703.4z"/>
				<path class="st13" d="M1911.5,703.4c0-2.8-2.3-5.1-5.1-5.1c-2.8,0-5.1,2.3-5.1,5.1v16h10.2V703.4z"/>
			</g>
			<g>
				<path class="st13" d="M1780.3,671c0-2.8-2.3-5.1-5.1-5.1c-2.8,0-5.1,2.3-5.1,5.1v16h10.2V671z"/>
				<path class="st13" d="M1832.8,671c0-2.8-2.3-5.1-5.1-5.1c-2.8,0-5.1,2.3-5.1,5.1v16h10.2V671z"/>
				<path class="st13" d="M1859,671c0-2.8-2.3-5.1-5.1-5.1c-2.8,0-5.1,2.3-5.1,5.1v16h10.2V671z"/>
				<path class="st13" d="M1885.3,671c0-2.8-2.3-5.1-5.1-5.1c-2.8,0-5.1,2.3-5.1,5.1v16h10.2V671z"/>
				<path class="st13" d="M1806.5,671c0-2.8-2.3-5.1-5.1-5.1c-2.8,0-5.1,2.3-5.1,5.1v16h10.2V671z"/>
				<path class="st13" d="M1911.5,671c0-2.8-2.3-5.1-5.1-5.1c-2.8,0-5.1,2.3-5.1,5.1v16h10.2V671z"/>
			</g>
		</g>
		<polygon class="st64" points="1922.5,736.5 1660,736.5 1665.9,744.3 1922.5,744.3 		"/>
		<polygon class="st65" points="1922.5,634.9 1761.7,634.9 1753.7,651.5 1922.5,651.5 		"/>
		<polygon class="st65" points="1922.5,722.3 1706.5,722.3 1660,736.5 1922.5,736.5 		"/>
		<polygon class="st65" points="1922.5,682.6 1914.3,679.7 1889.4,679.7 1847.7,694.7 1922.5,694.7 		"/>
		<rect x="1847.7" y="694.7" class="st64" width="74.8" height="13.9"/>
		<polygon class="st64" points="1922.5,708.6 1836,708.6 1841.9,716.4 1922.5,716.4 		"/>
		<rect x="1836" y="705.3" class="st65" width="86.4" height="3.3"/>
		<rect x="-1.5" y="948.3" class="st65" width="211.4" height="56.1"/>
		<linearGradient id="SVGID_10_" gradientUnits="userSpaceOnUse" x1="14.7481" y1="671.1964" x2="14.7481" y2="722.33">
			<stop  offset="0" style="stop-color:#A3B9B0"/>
			<stop  offset="1" style="stop-color:#B5CAC5"/>
		</linearGradient>
		<rect x="-2.6" y="671.2" style="fill:url(#SVGID_10_);" width="34.7" height="51.1"/>
		<polygon class="st65" points="27.2,654.4 -2.6,654.4 -2.6,673.8 36.5,673.8 		"/>
		<g>
			<g>
				<polyline class="st67" points="144.7,917.2 176.9,884.9 144.7,852.6 176.9,820.4 				"/>
				<polyline class="st67" points="144.7,820.4 176.9,852.6 144.7,884.9 176.9,917.2 				"/>
			</g>
			<g>
				<polyline class="st67" points="176.9,820.5 144.7,788.2 176.9,755.9 144.7,723.7 176.9,691.4 144.7,659.1 176.9,626.9 
					144.7,594.6 176.9,562.3 				"/>
				<polyline class="st67" points="144.7,562.3 176.9,594.6 144.7,626.9 176.9,659.1 144.7,691.4 176.9,723.7 144.7,755.9 
					176.9,788.2 144.7,820.5 				"/>
			</g>
		</g>
		<rect x="-2.6" y="527.6" class="st65" width="212.5" height="36.5"/>
		<rect x="144.7" y="503.8" class="st64" width="32.3" height="24.4"/>
		<rect x="131.2" y="479.8" class="st65" width="59.2" height="37.3"/>
		<line class="st68" x1="176.9" y1="562.3" x2="176.9" y2="868.7"/>
		<line class="st68" x1="144.7" y1="868.7" x2="144.7" y2="562.3"/>
		<linearGradient id="SVGID_11_" gradientUnits="userSpaceOnUse" x1="48.9847" y1="730.9775" x2="48.9847" y2="871.4587">
			<stop  offset="0" style="stop-color:#A3B9B0"/>
			<stop  offset="1" style="stop-color:#B5CAC5"/>
		</linearGradient>
		<rect x="-3.7" y="731" style="fill:url(#SVGID_11_);" width="105.4" height="140.5"/>
		<rect x="77.5" y="805.1" class="st37" width="14.2" height="16.5"/>
		<rect x="53.1" y="805.1" class="st37" width="14.2" height="16.5"/>
		<rect x="77.5" y="778.4" class="st37" width="14.2" height="16.5"/>
		<rect x="53.1" y="778.4" class="st37" width="14.2" height="16.5"/>
		<rect x="77.5" y="831.8" class="st37" width="14.2" height="16.5"/>
		<rect x="53.1" y="831.8" class="st37" width="14.2" height="16.5"/>
		<rect x="77.5" y="751.6" class="st37" width="14.2" height="16.5"/>
		<polygon class="st65" points="95,707.4 -2.6,707.4 -2.6,737.7 109.7,737.7 		"/>
		<rect x="68.2" y="693.7" class="st65" width="10" height="14.7"/>
		<rect x="25.2" y="786.8" class="st3" width="10.7" height="12.9"/>
		<rect x="25.2" y="827.6" class="st3" width="10.7" height="12.9"/>
		<rect x="4.9" y="827.6" class="st3" width="10.7" height="12.9"/>
		<g>
			<rect x="25.2" y="807.2" class="st13" width="10.7" height="12.9"/>
			<rect x="4.9" y="786.8" class="st13" width="10.7" height="12.9"/>
			<rect x="4.9" y="807.2" class="st13" width="10.7" height="12.9"/>
			<rect x="45.6" y="745.9" class="st13" width="10.7" height="12.9"/>
			<rect x="25.2" y="745.9" class="st13" width="10.7" height="12.9"/>
			<rect x="25.2" y="766.3" class="st13" width="10.7" height="12.9"/>
			<rect x="25.2" y="786.8" class="st13" width="10.7" height="12.9"/>
			<rect x="4.9" y="745.9" class="st13" width="10.7" height="12.9"/>
			<rect x="4.9" y="766.3" class="st13" width="10.7" height="12.9"/>
			<rect x="25.2" y="827.6" class="st13" width="10.7" height="12.9"/>
			<rect x="25.2" y="848.1" class="st13" width="10.7" height="12.9"/>
			<rect x="4.9" y="827.6" class="st13" width="10.7" height="12.9"/>
			<rect x="4.9" y="848.1" class="st13" width="10.7" height="12.9"/>
		</g>
		<linearGradient id="SVGID_12_" gradientUnits="userSpaceOnUse" x1="80.5824" y1="734.5054" x2="80.5824" y2="945.8181">
			<stop  offset="0" style="stop-color:#A3B9B0"/>
			<stop  offset="1" style="stop-color:#B5CAC5"/>
		</linearGradient>
		<polygon style="fill:url(#SVGID_12_);" points="132,945.8 132,799.3 114.9,777.8 114.9,771.1 80.6,734.5 46.3,771.1 46.3,777.8 
			29.1,799.3 29.1,945.8 		"/>
		<g>
			<rect x="100" y="788.6" class="st13" width="14.1" height="17"/>
			<rect x="100" y="815.5" class="st13" width="14.1" height="17"/>
			<rect x="100" y="842.4" class="st13" width="14.1" height="17"/>
			<rect x="73.3" y="788.6" class="st13" width="14.1" height="17"/>
			<rect x="73.3" y="815.5" class="st13" width="14.1" height="17"/>
			<rect x="73.3" y="761.7" class="st13" width="14.1" height="17"/>
			<rect x="73.3" y="842.4" class="st13" width="14.1" height="17"/>
			<rect x="46.5" y="788.6" class="st13" width="14.1" height="17"/>
			<rect x="46.5" y="815.5" class="st13" width="14.1" height="17"/>
			<rect x="46.5" y="842.4" class="st13" width="14.1" height="17"/>
		</g>
		<polygon class="st65" points="132,800.9 113.2,776.6 113.2,770 80.6,734.7 48,770 48,776.6 29.2,800.9 27.2,799.4 45.5,775.8 
			45.5,769 80.6,731 115.6,769 115.6,775.8 133.9,799.4 		"/>
		<rect x="-2.6" y="868.6" class="st65" width="180.9" height="24.8"/>
		<text transform="matrix(1 0 0 1 36.1489 887.6656)" class="st13 st71 st72">TUNNELBANA</text>
		<linearGradient id="SVGID_13_" gradientUnits="userSpaceOnUse" x1="87.8379" y1="893.6384" x2="87.8379" y2="948.1627">
			<stop  offset="0" style="stop-color:#A3B9B0"/>
			<stop  offset="1" style="stop-color:#B5CAC5"/>
		</linearGradient>
		<rect x="-2.6" y="893.6" class="st24" width="180.9" height="54.5"/>
		<rect x="32.4" y="893.5" class="st74" width="110.9" height="54.6"/>
		<g>
			<g>
				<path class="st65" d="M1923.7,907.2h-103.5v68.3c25.1-22.2,61.2-38.9,103.5-48.7V907.2z"/>
				<path class="st65" d="M1821,976c-42.2-36.7-113.4-59.3-193-59.3c-79.6,0-150,22-193,58.7v-69.1h386.2L1821,976z"/>
				<path class="st65" d="M1436,976c-42.2-36.7-112.9-59.3-192.5-59.3c-79.6,0-150.5,22-192.5,58.7v-69.1h385.3L1436,976z"/>
			</g>
		</g>
		<linearGradient id="SVGID_14_" gradientUnits="userSpaceOnUse" x1="1789.8245" y1="744.2757" x2="1789.8245" y2="882.9852">
			<stop  offset="0" style="stop-color:#A3B9B0"/>
			<stop  offset="1" style="stop-color:#B5CAC5"/>
		</linearGradient>
		<rect x="1666.6" y="744.3" class="st25" width="246.4" height="138.7"/>
		<linearGradient id="SVGID_15_" gradientUnits="userSpaceOnUse" x1="1882.9294" y1="716.4424" x2="1882.9294" y2="882.9852">
			<stop  offset="0" style="stop-color:#A3B9B0"/>
			<stop  offset="1" style="stop-color:#B5CAC5"/>
		</linearGradient>
		<rect x="1843.4" y="716.4" class="st26" width="79.1" height="166.5"/>
		<g>
			<path class="st13" d="M1698.2,806.1c0-4-3.2-7.3-7.3-7.3c-4,0-7.3,3.2-7.3,7.3v22.7h14.5V806.1z"/>
			<path class="st13" d="M1725.8,806.1c0-4-3.2-7.3-7.3-7.3c-4,0-7.3,3.2-7.3,7.3v22.7h14.5V806.1z"/>
			<path class="st13" d="M1753.4,806.1c0-4-3.2-7.3-7.3-7.3c-4,0-7.3,3.2-7.3,7.3v22.7h14.5V806.1z"/>
			<path class="st13" d="M1781.1,806.1c0-4-3.2-7.3-7.3-7.3c-4,0-7.3,3.2-7.3,7.3v22.7h14.5V806.1z"/>
			<path class="st13" d="M1836.3,806.1c0-4-3.2-7.3-7.3-7.3c-4,0-7.3,3.2-7.3,7.3v22.7h14.5V806.1z"/>
			<path class="st13" d="M1808.7,806.1c0-4-3.2-7.3-7.3-7.3c-4,0-7.3,3.2-7.3,7.3v22.7h14.5V806.1z"/>
			<path class="st13" d="M1696.3,849c0-3-2.4-5.4-5.4-5.4c-3,0-5.4,2.4-5.4,5.4v16.8h10.7V849z"/>
			<path class="st13" d="M1751.6,849c0-3-2.4-5.4-5.4-5.4c-3,0-5.4,2.4-5.4,5.4v16.8h10.7V849z"/>
			<path class="st13" d="M1779.2,849c0-3-2.4-5.4-5.4-5.4c-3,0-5.4,2.4-5.4,5.4v16.8h10.7V849z"/>
			<path class="st13" d="M1806.8,849c0-3-2.4-5.4-5.4-5.4c-3,0-5.4,2.4-5.4,5.4v16.8h10.7V849z"/>
			<path class="st13" d="M1723.9,849c0-3-2.4-5.4-5.4-5.4c-3,0-5.4,2.4-5.4,5.4v16.8h10.7V849z"/>
			<path class="st13" d="M1834.4,849c0-3-2.4-5.4-5.4-5.4c-3,0-5.4,2.4-5.4,5.4v16.8h10.7V849z"/>
			<g>
				<path class="st13" d="M1828.2,764.9c0-1.4-1.1-2.5-2.5-2.5s-2.5,1.1-2.5,2.5v13.1h4.9V764.9z"/>
				<path class="st13" d="M1834.8,764.9c0-1.4-1.1-2.5-2.5-2.5s-2.5,1.1-2.5,2.5v13.1h4.9V764.9z"/>
			</g>
			<g>
				<path class="st13" d="M1800.6,764.9c0-1.4-1.1-2.5-2.5-2.5s-2.5,1.1-2.5,2.5v13.1h4.9V764.9z"/>
				<path class="st13" d="M1807.2,764.9c0-1.4-1.1-2.5-2.5-2.5s-2.5,1.1-2.5,2.5v13.1h4.9V764.9z"/>
			</g>
			<g>
				<path class="st13" d="M1773,764.9c0-1.4-1.1-2.5-2.5-2.5s-2.5,1.1-2.5,2.5v13.1h4.9V764.9z"/>
				<path class="st13" d="M1779.5,764.9c0-1.4-1.1-2.5-2.5-2.5s-2.5,1.1-2.5,2.5v13.1h4.9V764.9z"/>
			</g>
			<g>
				<path class="st13" d="M1745.4,764.9c0-1.4-1.1-2.5-2.5-2.5s-2.5,1.1-2.5,2.5v13.1h4.9V764.9z"/>
				<path class="st13" d="M1751.9,764.9c0-1.4-1.1-2.5-2.5-2.5s-2.5,1.1-2.5,2.5v13.1h4.9V764.9z"/>
			</g>
			<g>
				<path class="st13" d="M1717.8,764.9c0-1.4-1.1-2.5-2.5-2.5s-2.5,1.1-2.5,2.5v13.1h4.9V764.9z"/>
				<path class="st13" d="M1724.3,764.9c0-1.4-1.1-2.5-2.5-2.5s-2.5,1.1-2.5,2.5v13.1h4.9V764.9z"/>
			</g>
			<g>
				<path class="st13" d="M1690.1,764.9c0-1.4-1.1-2.5-2.5-2.5s-2.5,1.1-2.5,2.5v13.1h4.9V764.9z"/>
				<path class="st13" d="M1696.7,764.9c0-1.4-1.1-2.5-2.5-2.5s-2.5,1.1-2.5,2.5v13.1h4.9V764.9z"/>
			</g>
			<path class="st13" d="M1875.2,847.1c0-5.4-4.4-9.7-9.7-9.7c-5.4,0-9.7,4.4-9.7,9.7v25.5h19.5V847.1z"/>
			<path class="st13" d="M1912.3,847.1c0-5.4-4.4-9.7-9.7-9.7c-5.4,0-9.7,4.4-9.7,9.7v25.5h19.5V847.1z"/>
			<g>
				<path class="st13" d="M1901.1,803.3c0-2.5-2-4.5-4.5-4.5c-2.5,0-4.5,2-4.5,4.5v23.9h9V803.3z"/>
				<path class="st13" d="M1913,803.3c0-2.5-2-4.5-4.5-4.5c-2.5,0-4.5,2-4.5,4.5v23.9h9V803.3z"/>
			</g>
			<g>
				<path class="st13" d="M1864,803.3c0-2.5-2-4.5-4.5-4.5s-4.5,2-4.5,4.5v23.9h9V803.3z"/>
				<path class="st13" d="M1875.9,803.3c0-2.5-2-4.5-4.5-4.5c-2.5,0-4.5,2-4.5,4.5v23.9h9V803.3z"/>
			</g>
			<g>
				<path class="st13" d="M1901.1,754.1c0-2.5-2-4.5-4.5-4.5c-2.5,0-4.5,2-4.5,4.5v23.9h9V754.1z"/>
				<path class="st13" d="M1913,754.1c0-2.5-2-4.5-4.5-4.5c-2.5,0-4.5,2-4.5,4.5v23.9h9V754.1z"/>
			</g>
			<g>
				<path class="st13" d="M1864,754.1c0-2.5-2-4.5-4.5-4.5s-4.5,2-4.5,4.5v23.9h9V754.1z"/>
				<path class="st13" d="M1875.9,754.1c0-2.5-2-4.5-4.5-4.5c-2.5,0-4.5,2-4.5,4.5v23.9h9V754.1z"/>
			</g>
		</g>
		<g>
			<g>
				<rect x="1415.9" y="907.2" class="st77" width="40.8" height="53.6"/>
				<polygon class="st77" points="1467.7,1004.3 1404.9,1004.3 1415.9,960.8 1456.7,960.8 				"/>
				<rect x="1800.8" y="907.2" class="st77" width="40.8" height="53.6"/>
				<polygon class="st77" points="1852.6,1004.3 1789.8,1004.3 1800.8,960.8 1841.6,960.8 				"/>
			</g>
		</g>
		<path class="st65" d="M774.3,977.2c17.9,0-8.3,29.7,9.6,29.8c17.9,0,73.7-29.6,91.6-29.5c17.9,0-8.3,29.7,9.6,29.8
			c17.9,0,73.7-29.6,91.6-29.5c17.9,0-8.3,29.7,9.6,29.8c17.9,0,73.7-29.6,91.6-29.5c17.9,0-8.3,29.7,9.6,29.8
			c17.9,0,73.7-29.6,91.6-29.5c14.6,0-0.1,19.8,3.7,27.1v-0.2c9.1,0,27.9-7.6,46.6-15.1c-61.3-121.1-159.2-216.8-269.6-216.8
			c-115.1,0-216.7,104.1-277.3,232.6C706,1001.2,758.2,977.2,774.3,977.2z"/>
		<rect x="793.3" y="749.7" class="st38" width="333.1" height="99.4"/>
		<polyline class="st78" points="999.5,699.1 999.5,703.5 1018.2,703.5 1018.2,699.1 		"/>
		<polyline class="st78" points="900.6,702.6 901.5,706.7 916.9,706.7 917.8,702.6 		"/>
		<polygon class="st78" points="1138.7,749.9 1106.8,715.1 813.1,715.1 781.2,749.9 		"/>
		<rect x="1001.2" y="701.1" class="st78" width="15.3" height="19"/>
		<rect x="902.2" y="704.5" class="st78" width="14.1" height="17.5"/>
		<g>
			<g>
				<g>
					<rect x="1070.2" y="807.5" class="st3" width="13.7" height="25.4"/>
					<path class="st3" d="M1083.1,808.2v23.9h-12.2v-23.9H1083.1 M1084.6,806.7h-15.1v26.9h15.1V806.7L1084.6,806.7z"/>
				</g>
				<g>
					<rect x="1036.6" y="807.5" class="st3" width="13.7" height="25.4"/>
					<path class="st3" d="M1049.5,808.2v23.9h-12.2v-23.9H1049.5 M1051,806.7h-15.1v26.9h15.1V806.7L1051,806.7z"/>
				</g>
				<g>
					<rect x="1002.8" y="807.5" class="st3" width="13.7" height="25.4"/>
					<path class="st3" d="M1015.7,808.2v23.9h-12.2v-23.9H1015.7 M1017.2,806.7H1002v26.9h15.1V806.7L1017.2,806.7z"/>
				</g>
				<g>
					<rect x="969" y="807.5" class="st3" width="13.7" height="25.4"/>
					<path class="st3" d="M981.9,808.2v23.9h-12.2v-23.9H981.9 M983.3,806.7h-15.1v26.9h15.1V806.7L983.3,806.7z"/>
				</g>
				<g>
					<rect x="935.3" y="807.5" class="st3" width="13.7" height="25.4"/>
					<path class="st3" d="M948.3,808.2v23.9h-12.2v-23.9H948.3 M949.7,806.7h-15.1v26.9h15.1V806.7L949.7,806.7z"/>
				</g>
				<g>
					<rect x="1070.2" y="761.3" class="st3" width="13.7" height="25.4"/>
					<path class="st3" d="M1083.1,762v23.9h-12.2V762H1083.1 M1084.6,760.5h-15.1v26.9h15.1V760.5L1084.6,760.5z"/>
				</g>
				<g>
					<rect x="1036.6" y="761.3" class="st3" width="13.7" height="25.4"/>
					<path class="st3" d="M1049.5,762v23.9h-12.2V762H1049.5 M1051,760.5h-15.1v26.9h15.1V760.5L1051,760.5z"/>
				</g>
				<g>
					<rect x="834.1" y="761.3" class="st3" width="13.7" height="25.4"/>
				</g>
				<g>
					<rect x="834.1" y="807.5" class="st3" width="13.7" height="25.4"/>
					<path class="st3" d="M847,808.2v23.9h-12.2v-23.9H847 M848.5,806.7h-15.1v26.9h15.1V806.7L848.5,806.7z"/>
				</g>
				<g>
					<rect x="800.3" y="761.3" class="st3" width="13.7" height="25.4"/>
					<path class="st3" d="M813.2,762v23.9H801V762H813.2 M814.7,760.5h-15.1v26.9h15.1V760.5L814.7,760.5z"/>
				</g>
				<g>
					<rect x="1002.8" y="761.3" class="st3" width="13.7" height="25.4"/>
					<path class="st3" d="M1015.7,762v23.9h-12.2V762H1015.7 M1017.2,760.5H1002v26.9h15.1V760.5L1017.2,760.5z"/>
				</g>
				<g>
					<rect x="969" y="761.3" class="st3" width="13.7" height="25.4"/>
					<path class="st3" d="M981.9,762v23.9h-12.2V762H981.9 M983.3,760.5h-15.1v26.9h15.1V760.5L983.3,760.5z"/>
				</g>
				<g>
					<rect x="935.3" y="761.3" class="st3" width="13.7" height="25.4"/>
					<path class="st3" d="M948.3,762v23.9h-12.2V762H948.3 M949.7,760.5h-15.1v26.9h15.1V760.5L949.7,760.5z"/>
				</g>
				<g>
					<rect x="1104" y="761.3" class="st3" width="13.7" height="25.4"/>
					<path class="st3" d="M1116.9,762v23.9h-12.2V762H1116.9 M1118.4,760.5h-15.1v26.9h15.1V760.5L1118.4,760.5z"/>
				</g>
				<g>
					<rect x="898" y="791.7" class="st3" width="20.6" height="24.2"/>
					<path class="st3" d="M917.8,792.4v22.7h-19.1v-22.7H917.8 M919.3,791h-22.1v25.6h22.1V791L919.3,791z"/>
				</g>
				<g>
					<rect x="898" y="761.5" class="st3" width="20.6" height="7.4"/>
					<path class="st3" d="M917.8,762.2v5.9h-19.1v-5.9H917.8 M919.3,760.7h-22.1v8.8h22.1V760.7L919.3,760.7z"/>
				</g>
				<rect x="867.7" y="805.6" class="st3" width="15.5" height="43.1"/>
			</g>
			<g>
				<rect x="867.7" y="761.3" class="st3" width="13.7" height="25.4"/>
				<path class="st3" d="M879.8,762v23.9h-12.2V762H879.8 M881.3,760.5h-15.1v26.9h15.1V760.5L881.3,760.5z"/>
			</g>
		</g>
	</g>
</g>
<g id="Bus" class="st0">
	<g class="st2">
		<polygon class="st102" points="1263.3,802 1278.2,793 1321,793 1321,804 1263.2,804 		"/>
		
			<rect x="1224.6" y="798.6" transform="matrix(-1 -4.284185e-11 4.284185e-11 -1 2469.0854 1603.4059)" class="st102" width="19.9" height="6.2"/>
		<path class="st46" d="M1215.2,830.6l8.2,3.2h117.2l13.6-3v-30.2c0,0-101.5,0-133.5,0"/>
		<polygon class="st23" points="1215.6,828.4 1354,828.4 1354,826.4 1216,826.4 		"/>
		<circle class="st78" cx="1250.9" cy="830.9" r="6.4"/>
		<circle class="st78" cx="1315" cy="830.9" r="6.4"/>
		
			<rect x="1283.2" y="806.6" transform="matrix(-1 -4.504365e-11 4.504365e-11 -1 2573.2874 1637.3184)" class="st103" width="6.9" height="24.1"/>
		
			<rect x="1293.1" y="806.6" transform="matrix(-1 -4.345825e-11 4.345825e-11 -1 2593.0955 1637.3184)" class="st103" width="6.9" height="24.1"/>
		
			<rect x="1224.6" y="806.6" transform="matrix(-1 -4.649671e-11 4.649671e-11 -1 2456.1626 1637.3184)" class="st103" width="6.9" height="24.1"/>
		
			<rect x="1234.5" y="806.6" transform="matrix(-1 -4.649671e-11 4.649671e-11 -1 2475.9709 1637.3184)" class="st103" width="6.9" height="24.1"/>
		
			<rect x="1324.6" y="806.6" transform="matrix(-1 -4.517554e-11 4.517554e-11 -1 2656.0259 1637.3184)" class="st103" width="6.9" height="24.1"/>
		
			<rect x="1334.5" y="806.6" transform="matrix(-1 -4.517554e-11 4.517554e-11 -1 2675.8342 1637.3184)" class="st103" width="6.9" height="24.1"/>
		
			<rect x="1303" y="806.6" transform="matrix(-1 -4.497037e-11 4.497037e-11 -1 2624.4832 1627.1709)" class="st103" width="18.5" height="13.9"/>
		
			<rect x="1265.8" y="806.6" transform="matrix(-1 -4.430779e-11 4.430779e-11 -1 2545.865 1627.1709)" class="st103" width="14.2" height="13.9"/>
		<polygon class="st103" points="1216.5,823 1222,823 1222,806 1219.6,806 		"/>
		
			<rect x="1244.5" y="806.6" transform="matrix(-1 -4.472213e-11 4.472213e-11 -1 2507.2791 1627.1709)" class="st103" width="18.3" height="13.9"/>
		
			<rect x="1344.4" y="806.6" transform="matrix(-1 -4.444990e-11 4.444990e-11 -1 2695.2637 1627.1709)" class="st103" width="6.5" height="13.9"/>
	</g>
</g>
<g id="time" class="st0">
	<g class="st2">
		<g>
			<text transform="matrix(1 0 0 1 385.0129 227.8063)" class="st65 st104 st105">NEXT BOAT TO SLUSSEN LEAVES IN:</text>
			<text transform="matrix(1 0 0 1 331.8923 350.3249)"><tspan x="0" y="0" class="st65 st104 st106">00</tspan><tspan x="156.4" y="-9.6" class="st65 st104 st106">:</tspan><tspan x="195.2" y="0" class="st65 st104 st106">00</tspan><tspan x="351.6" y="-9.6" class="st65 st104 st106">:</tspan><tspan x="390.4" y="0" class="st65 st104 st106">00</tspan></text>
			<text transform="matrix(1 0 0 1 1004.8611 227.8066)" class="st65 st104 st105">NEXT BUS TO CENTRAL STATION LEAVES IN:</text>
			<text transform="matrix(1 0 0 1 999.8806 350.3249)"><tspan x="0" y="0" class="st65 st104 st106">00</tspan><tspan x="156.4" y="-9.6" class="st65 st104 st106">:</tspan><tspan x="195.2" y="0" class="st65 st104 st106">00</tspan><tspan x="351.6" y="-9.6" class="st65 st104 st106">:</tspan><tspan x="390.4" y="0" class="st65 st104 st106">00</tspan></text>
		</g>
	</g>
</g>
<g id="Logo" class="st0">
</g>
</svg>
