<?xml version="1.0" encoding="utf-8"?>
<!-- Generator: Adobe Illustrator 19.2.1, SVG Export Plug-In . SVG Version: 6.00 Build 0)  -->
<svg version="1.1" xmlns="http://www.w3.org/2000/svg" xmlns:xlink="http://www.w3.org/1999/xlink" x="0px" y="0px"
	 viewBox="0 0 1440 900" style="enable-background:new 0 0 1440 900;" xml:space="preserve">
<style type="text/css">
	.st0{fill:#4A617C;}
	.st1{fill:#FFFFFF;}
	.st2{fill:none;}
	.st3{fill:#F8DEC5;}
	.st4{fill:#D7E2E1;}
	.st5{fill:#C1CCE2;}
	.st6{fill:url(#SVGID_1_);}
	.st7{fill:url(#SVGID_2_);}
	.st8{fill:url(#SVGID_3_);}
	.st9{fill:url(#SVGID_4_);}
	.st10{fill:url(#SVGID_5_);}
	.st11{fill:url(#SVGID_6_);}
	.st12{fill:url(#SVGID_7_);}
	.st13{fill:url(#SVGID_8_);}
	.st14{fill:url(#SVGID_9_);}
	.st15{fill:url(#SVGID_10_);}
	.st16{fill:url(#SVGID_11_);}
	.st17{fill:url(#SVGID_12_);}
	.st18{fill:url(#SVGID_13_);}
	.st19{fill:url(#SVGID_14_);}
	.st20{fill:url(#SVGID_15_);}
	.st21{fill:url(#SVGID_16_);}
	.st22{fill:url(#SVGID_17_);}
	.st23{fill:url(#SVGID_18_);}
	.st24{fill:url(#SVGID_19_);}
	.st25{fill:url(#SVGID_20_);}
	.st26{display:none;}
	.st27{display:inline;fill:#FFFFFF;}
	.st28{display:inline;}
	.st29{fill:#FFEFA1;}
	.st30{display:inline;opacity:0.15;fill:url(#SVGID_21_);}
	.st31{display:inline;opacity:0.15;fill:url(#SVGID_22_);}
	.st32{display:inline;fill:#FFE83E;}
	.st33{display:inline;opacity:0.15;fill:url(#SVGID_23_);}
	.st34{fill:#FDC382;}
	.st35{display:inline;opacity:0.15;fill:url(#SVGID_24_);}
	.st36{display:inline;opacity:0.15;fill:url(#SVGID_25_);}
	.st37{display:inline;fill:#E57567;}
	.st38{display:inline;opacity:0.15;fill:url(#SVGID_26_);}
	.st39{fill:#CDDCD9;}
	.st40{display:inline;opacity:0.15;fill:url(#SVGID_27_);}
	.st41{display:inline;opacity:0.15;fill:url(#SVGID_28_);}
	.st42{display:inline;opacity:0.15;fill:url(#SVGID_29_);}
	.st43{display:inline;opacity:0.15;fill:url(#SVGID_30_);}
	.st44{display:inline;opacity:0.15;fill:url(#SVGID_31_);}
	.st45{display:inline;fill:#535DA5;}
	.st46{display:inline;opacity:0.15;fill:url(#SVGID_32_);}
	.st47{fill:#2B3C51;}
	.st48{fill:#091323;}
	.st49{fill:#0C1830;}
	.st50{fill:#364D60;}
	.st51{fill:#3A5876;}
	.st52{fill:#304559;}
	.st53{fill:none;stroke:#0C1830;stroke-miterlimit:10;}
	.st54{fill:none;stroke:#0C1830;stroke-width:2;stroke-miterlimit:10;}
	.st55{fill:#66542D;}
	.st56{font-family:'Futura-Dem';}
	.st57{font-size:12px;}
	.st58{fill:url(#SVGID_33_);}
	.st59{fill:#E57567;}
	.st60{fill:#F27572;}
	.st61{fill:url(#SVGID_34_);}
	.st62{fill:none;stroke:#E57567;stroke-miterlimit:10;}
	.st63{fill:none;stroke:#E57567;stroke-width:2;stroke-miterlimit:10;}
	.st64{fill:url(#SVGID_35_);}
	.st65{fill:url(#SVGID_36_);}
	.st66{fill:url(#SVGID_37_);}
	.st67{fill:url(#SVGID_38_);}
	.st68{fill:url(#SVGID_39_);}
	.st69{fill:url(#SVGID_40_);}
	.st70{fill:#548989;}
	.st71{fill:#5A9596;}
	.st72{fill:url(#SVGID_41_);}
	.st73{fill:none;stroke:#5A9596;stroke-miterlimit:10;}
	.st74{fill:none;stroke:#5A9596;stroke-width:2;stroke-miterlimit:10;}
	.st75{fill:url(#SVGID_42_);}
	.st76{fill:url(#SVGID_43_);}
	.st77{fill:url(#SVGID_44_);}
	.st78{fill:url(#SVGID_45_);}
	.st79{fill:url(#SVGID_46_);}
	.st80{fill:#65A5A5;}
	.st81{fill:#B8C7DC;}
	.st82{fill:url(#SVGID_47_);}
	.st83{fill:#475789;}
	.st84{fill:#4C5C96;}
	.st85{fill:#322F76;}
	.st86{fill:url(#SVGID_48_);}
	.st87{fill:none;stroke:#4C5C96;stroke-miterlimit:10;}
	.st88{fill:none;stroke:#4C5C96;stroke-width:2;stroke-miterlimit:10;}
	.st89{fill:url(#SVGID_49_);}
	.st90{fill:#665F23;}
	.st91{fill:#EEFF88;}
	.st92{fill:url(#SVGID_50_);}
	.st93{fill:url(#SVGID_51_);}
	.st94{fill:url(#SVGID_52_);}
	.st95{fill:url(#SVGID_53_);}
	.st96{fill:#5568A5;}
	.st97{fill:#FFE83E;}
	.st98{fill:#2D1A1A;}
	.st99{fill:#243A3A;}
	.st100{fill:#535DA5;}
	.st101{fill:#DB6E65;}
	.st102{fill:#CC665E;}
	.st103{font-family:'FuturaStd-BoldOblique';}
	.st104{font-size:24.7858px;}
	.st105{font-size:114.8371px;}
	.st106{clip-path:url(#SVGID_55_);fill:#FFFFFF;}
	.st107{clip-path:url(#SVGID_55_);}
	.st108{clip-path:url(#SVGID_57_);fill:#FFFFFF;}
	.st109{clip-path:url(#SVGID_59_);fill:#FFFFFF;}
	.st110{clip-path:url(#SVGID_59_);}
	.st111{clip-path:url(#SVGID_61_);fill:#FFFFFF;}
	.st112{clip-path:url(#SVGID_63_);fill:#FFFFFF;}
	.st113{clip-path:url(#SVGID_63_);}
	.st114{clip-path:url(#SVGID_65_);fill:#FFFFFF;}
	.st115{clip-path:url(#SVGID_67_);fill:#FFFFFF;}
	.st116{clip-path:url(#SVGID_67_);}
	.st117{clip-path:url(#SVGID_69_);fill:#FFFFFF;}
</style>
<g id="sky">
	<rect x="0" y="0" class="st0" width="1440" height="637.4"/>
	<path class="st1" d="M1061.7,451.7v5.2h-5.2c-0.5,0-0.9,0.4-0.9,0.9c0,0.5,0.4,0.9,0.9,0.9h5.2v5.2c0,0.5,0.4,0.9,0.9,0.9
		s0.9-0.4,0.9-0.9v-5.2h5.2c0.5,0,0.9-0.4,0.9-0.9c0-0.5-0.4-0.9-0.9-0.9h-5.2v-5.2c0-0.5-0.4-0.9-0.9-0.9
		S1061.7,451.3,1061.7,451.7z"/>
	<path class="st1" d="M309.3,60.7v5.2h-5.2c-0.5,0-0.9,0.4-0.9,0.9c0,0.5,0.4,0.9,0.9,0.9h5.2v5.2c0,0.5,0.4,0.9,0.9,0.9
		c0.5,0,0.9-0.4,0.9-0.9v-5.2h5.2c0.5,0,0.9-0.4,0.9-0.9c0-0.5-0.4-0.9-0.9-0.9h-5.2v-5.2c0-0.5-0.4-0.9-0.9-0.9
		C309.7,59.9,309.3,60.2,309.3,60.7z"/>
	<path class="st1" d="M923.5,372.9v5.2h-5.2c-0.5,0-0.9,0.4-0.9,0.9s0.4,0.9,0.9,0.9h5.2v5.2c0,0.5,0.4,0.9,0.9,0.9
		c0.5,0,0.9-0.4,0.9-0.9v-5.2h5.2c0.5,0,0.9-0.4,0.9-0.9s-0.4-0.9-0.9-0.9h-5.2v-5.2c0-0.5-0.4-0.9-0.9-0.9
		C923.9,372,923.5,372.4,923.5,372.9z"/>
	<path class="st1" d="M1213.6,320.4v5.2h-5.2c-0.5,0-0.9,0.4-0.9,0.9s0.4,0.9,0.9,0.9h5.2v5.2c0,0.5,0.4,0.9,0.9,0.9
		s0.9-0.4,0.9-0.9v-5.2h5.2c0.5,0,0.9-0.4,0.9-0.9s-0.4-0.9-0.9-0.9h-5.2v-5.2c0-0.5-0.4-0.9-0.9-0.9S1213.6,319.9,1213.6,320.4z"/>
	<path class="st1" d="M1001.5,67.6v5.2h-5.2c-0.5,0-0.9,0.4-0.9,0.9c0,0.5,0.4,0.9,0.9,0.9h5.2v5.2c0,0.5,0.4,0.9,0.9,0.9
		s0.9-0.4,0.9-0.9v-5.2h5.2c0.5,0,0.9-0.4,0.9-0.9c0-0.5-0.4-0.9-0.9-0.9h-5.2v-5.2c0-0.5-0.4-0.9-0.9-0.9S1001.5,67.2,1001.5,67.6z
		"/>
	<path class="st2" d="M406.2,75.1v5.2H401c-0.5,0-0.9,0.4-0.9,0.9s0.4,0.9,0.9,0.9h5.2v5.2c0,0.5,0.4,0.9,0.9,0.9
		c0.5,0,0.9-0.4,0.9-0.9v-5.2h5.2c0.5,0,0.9-0.4,0.9-0.9s-0.4-0.9-0.9-0.9h-5.2v-5.2c0-0.5-0.4-0.9-0.9-0.9
		C406.6,74.3,406.2,74.7,406.2,75.1z"/>
	<path class="st1" d="M744.7,188v5.2h-5.2c-0.5,0-0.9,0.4-0.9,0.9c0,0.5,0.4,0.9,0.9,0.9h5.2v5.2c0,0.5,0.4,0.9,0.9,0.9
		c0.5,0,0.9-0.4,0.9-0.9v-5.2h5.2c0.5,0,0.9-0.4,0.9-0.9c0-0.5-0.4-0.9-0.9-0.9h-5.2V188c0-0.5-0.4-0.9-0.9-0.9
		C745.1,187.1,744.7,187.5,744.7,188z"/>
	<path class="st1" d="M77.4,171.6v-5.2h5.2c0.5,0,0.9-0.4,0.9-0.9c0-0.5-0.4-0.9-0.9-0.9h-5.2v-5.2c0-0.5-0.4-0.9-0.9-0.9
		c-0.5,0-0.9,0.4-0.9,0.9v5.2h-5.2c-0.5,0-0.9,0.4-0.9,0.9c0,0.5,0.4,0.9,0.9,0.9h5.2v5.2c0,0.5,0.4,0.9,0.9,0.9
		C77,172.5,77.4,172.1,77.4,171.6z"/>
	<path class="st1" d="M1328.5,419.7l-3.7-3.7l3.7-3.7c0.3-0.3,0.3-0.9,0-1.2c-0.3-0.3-0.9-0.3-1.2,0l-3.7,3.7l-3.7-3.7
		c-0.3-0.3-0.9-0.3-1.2,0c-0.3,0.3-0.3,0.9,0,1.2l3.7,3.7l-3.7,3.7c-0.3,0.3-0.3,0.9,0,1.2c0.3,0.3,0.9,0.3,1.2,0l3.7-3.7l3.7,3.7
		c0.3,0.3,0.9,0.3,1.2,0C1328.8,420.6,1328.8,420.1,1328.5,419.7z"/>
	<path class="st1" d="M667.5,449l-3.7-3.7l3.7-3.7c0.3-0.3,0.3-0.9,0-1.2c-0.3-0.3-0.9-0.3-1.2,0l-3.7,3.7l-3.7-3.7
		c-0.3-0.3-0.9-0.3-1.2,0s-0.3,0.9,0,1.2l3.7,3.7l-3.7,3.7c-0.3,0.3-0.3,0.9,0,1.2c0.3,0.3,0.9,0.3,1.2,0l3.7-3.7l3.7,3.7
		c0.3,0.3,0.9,0.3,1.2,0C667.9,449.9,667.9,449.3,667.5,449z"/>
	<path class="st1" d="M1409.7,303.6l-3.7-3.7l3.7-3.7c0.3-0.3,0.3-0.9,0-1.2c-0.3-0.3-0.9-0.3-1.2,0l-3.7,3.7l-3.7-3.7
		c-0.3-0.3-0.9-0.3-1.2,0c-0.3,0.3-0.3,0.9,0,1.2l3.7,3.7l-3.7,3.7c-0.3,0.3-0.3,0.9,0,1.2c0.3,0.3,0.9,0.3,1.2,0l3.7-3.7l3.7,3.7
		c0.3,0.3,0.9,0.3,1.2,0C1410.1,304.5,1410.1,303.9,1409.7,303.6z"/>
	<path class="st1" d="M380.2,431.7v-5.2h5.2c0.5,0,0.9-0.4,0.9-0.9c0-0.5-0.4-0.9-0.9-0.9h-5.2v-5.2c0-0.5-0.4-0.9-0.9-0.9
		c-0.5,0-0.9,0.4-0.9,0.9v5.2h-5.2c-0.5,0-0.9,0.4-0.9,0.9c0,0.5,0.4,0.9,0.9,0.9h5.2v5.2c0,0.5,0.4,0.9,0.9,0.9
		C379.8,432.5,380.2,432.1,380.2,431.7z"/>
	<path class="st1" d="M178.4,303.6l-3.7-3.7l3.7-3.7c0.3-0.3,0.3-0.9,0-1.2c-0.3-0.3-0.9-0.3-1.2,0l-3.7,3.7l-3.7-3.7
		c-0.3-0.3-0.9-0.3-1.2,0c-0.3,0.3-0.3,0.9,0,1.2l3.7,3.7l-3.7,3.7c-0.3,0.3-0.3,0.9,0,1.2c0.3,0.3,0.9,0.3,1.2,0l3.7-3.7l3.7,3.7
		c0.3,0.3,0.9,0.3,1.2,0C178.7,304.5,178.7,303.9,178.4,303.6z"/>
	<path class="st1" d="M688.8,250.6l-3.7-3.7l3.7-3.7c0.3-0.3,0.3-0.9,0-1.2c-0.3-0.3-0.9-0.3-1.2,0l-3.7,3.7l-3.7-3.7
		c-0.3-0.3-0.9-0.3-1.2,0c-0.3,0.3-0.3,0.9,0,1.2l3.7,3.7l-3.7,3.7c-0.3,0.3-0.3,0.9,0,1.2c0.3,0.3,0.9,0.3,1.2,0l3.7-3.7l3.7,3.7
		c0.3,0.3,0.9,0.3,1.2,0C689.1,251.5,689.1,251,688.8,250.6z"/>
	<path class="st1" d="M732.2,368.9l-3.7-3.7l3.7-3.7c0.3-0.3,0.3-0.9,0-1.2s-0.9-0.3-1.2,0l-3.7,3.7l-3.7-3.7
		c-0.3-0.3-0.9-0.3-1.2,0s-0.3,0.9,0,1.2l3.7,3.7l-3.7,3.7c-0.3,0.3-0.3,0.9,0,1.2c0.3,0.3,0.9,0.3,1.2,0l3.7-3.7l3.7,3.7
		c0.3,0.3,0.9,0.3,1.2,0C732.5,369.8,732.5,369.3,732.2,368.9z"/>
	<path class="st1" d="M221.6,458.4l-3.7-3.7l3.7-3.7c0.3-0.3,0.3-0.9,0-1.2c-0.3-0.3-0.9-0.3-1.2,0l-3.7,3.7l-3.7-3.7
		c-0.3-0.3-0.9-0.3-1.2,0c-0.3,0.3-0.3,0.9,0,1.2l3.7,3.7l-3.7,3.7c-0.3,0.3-0.3,0.9,0,1.2c0.3,0.3,0.9,0.3,1.2,0l3.7-3.7l3.7,3.7
		c0.3,0.3,0.9,0.3,1.2,0C222,459.3,222,458.7,221.6,458.4z"/>
	<path class="st1" d="M1333.6,65.3l-3.7-3.7l3.7-3.7c0.3-0.3,0.3-0.9,0-1.2c-0.3-0.3-0.9-0.3-1.2,0l-3.7,3.7l-3.7-3.7
		c-0.3-0.3-0.9-0.3-1.2,0c-0.3,0.3-0.3,0.9,0,1.2l3.7,3.7l-3.7,3.7c-0.3,0.3-0.3,0.9,0,1.2c0.3,0.3,0.9,0.3,1.2,0l3.7-3.7l3.7,3.7
		c0.3,0.3,0.9,0.3,1.2,0C1334,66.2,1334,65.6,1333.6,65.3z"/>
	<path class="st1" d="M686.9,49.1l-3.7-3.7l3.7-3.7c0.3-0.3,0.3-0.9,0-1.2c-0.3-0.3-0.9-0.3-1.2,0l-3.7,3.7l-3.7-3.7
		c-0.3-0.3-0.9-0.3-1.2,0c-0.3,0.3-0.3,0.9,0,1.2l3.7,3.7l-3.7,3.7c-0.3,0.3-0.3,0.9,0,1.2s0.9,0.3,1.2,0l3.7-3.7l3.7,3.7
		c0.3,0.3,0.9,0.3,1.2,0C687.3,50,687.3,49.4,686.9,49.1z"/>
	<path class="st1" d="M496.6,356.5l-3.7-3.7l3.7-3.7c0.3-0.3,0.3-0.9,0-1.2c-0.3-0.3-0.9-0.3-1.2,0l-3.7,3.7l-3.7-3.7
		c-0.3-0.3-0.9-0.3-1.2,0c-0.3,0.3-0.3,0.9,0,1.2l3.7,3.7l-3.7,3.7c-0.3,0.3-0.3,0.9,0,1.2s0.9,0.3,1.2,0l3.7-3.7l3.7,3.7
		c0.3,0.3,0.9,0.3,1.2,0S496.9,356.9,496.6,356.5z"/>
	<path class="st1" d="M49,389.5l-3.7-3.7l3.7-3.7c0.3-0.3,0.3-0.9,0-1.2s-0.9-0.3-1.2,0l-3.7,3.7l-3.7-3.7c-0.3-0.3-0.9-0.3-1.2,0
		c-0.3,0.3-0.3,0.9,0,1.2l3.7,3.7l-3.7,3.7c-0.3,0.3-0.3,0.9,0,1.2c0.3,0.3,0.9,0.3,1.2,0l3.7-3.7l3.7,3.7c0.3,0.3,0.9,0.3,1.2,0
		C49.4,390.4,49.4,389.8,49,389.5z"/>
</g>
<g id="skyline">
	<g>
		<linearGradient id="SVGID_1_" gradientUnits="userSpaceOnUse" x1="1266.7573" y1="452.579" x2="1266.7573" y2="449.4894">
			<stop  offset="0" style="stop-color:#445D75"/>
			<stop  offset="1" style="stop-color:#365271"/>
		</linearGradient>
		<polygon class="st6" points="1271.2,451.5 1271.2,449.6 1269.1,451.5 1267.1,449.5 1264.7,451.5 1262.3,449.6 1262.3,451.5 
			1262.3,452.6 1271.2,452.6 		"/>
		<linearGradient id="SVGID_2_" gradientUnits="userSpaceOnUse" x1="1246.4346" y1="452.579" x2="1246.4346" y2="449.4894">
			<stop  offset="0" style="stop-color:#445D75"/>
			<stop  offset="1" style="stop-color:#365271"/>
		</linearGradient>
		<polygon class="st7" points="1250.9,451.5 1250.9,449.6 1248.7,451.5 1246.7,449.5 1244.3,451.5 1242,449.6 1242,451.5 
			1242,452.6 1250.9,452.6 		"/>
		<linearGradient id="SVGID_3_" gradientUnits="userSpaceOnUse" x1="1256.7499" y1="460.465" x2="1256.7499" y2="457.2441">
			<stop  offset="0" style="stop-color:#445D75"/>
			<stop  offset="1" style="stop-color:#365271"/>
		</linearGradient>
		<polygon class="st8" points="1261.7,459.2 1261.7,457.3 1259.2,459.2 1257,457.2 1254.4,459.2 1251.8,457.3 1251.8,459.2 
			1251.8,460.5 1261.7,460.5 		"/>
		<linearGradient id="SVGID_4_" gradientUnits="userSpaceOnUse" x1="674.6105" y1="635.0019" x2="674.6105" y2="399.6113">
			<stop  offset="0" style="stop-color:#445D75"/>
			<stop  offset="1" style="stop-color:#365271"/>
		</linearGradient>
		<path class="st9" d="M1269.3,611.9V509.7l2.3-3.1h-5.5v-4.1l-1.6-6.9v-8l1.3-2.2l-1.3-2.2h-1.4l-4.8-4.9c1.2-0.6,2-1.8,2-3.2
			c0-2-1.6-3.6-3.5-3.6c-1.9,0-3.5,1.6-3.5,3.6c0,1.4,0.8,2.6,2,3.2l-4.8,4.9h-1.4l-1.3,2.2l1.3,2.2v8l-1.6,6.9v4.1h-5.5l2.3,3.1
			v60.9h-105.6v-4.7c0-0.6-0.3-1.2-0.8-1.5v-12.1c0.6-0.1,1.1-0.4,1.6-0.7c0.4-0.3,0.7-0.7,0.9-1.1c-1.4,0.4-2.9,0-3.9-1.2
			c-1-1.2-1.1-2.8-0.4-4.1c-0.4,0.1-0.9,0.4-1.2,0.7c-1.6,1.3-1.8,3.6-0.5,5.2c0.4,0.6,1,0.9,1.6,1.2v12.3c-0.5,0.3-0.8,0.9-0.8,1.5
			v4.7h-0.1l-7.8,12.2v29.2h-13.7v-43.5h-14.8v-13.6H953.9v-19.9h15.4l-3.8-5.4l3.8-5.4h-15.4h-1.7v30.8h-68.5V512l-2.7-4.7v-4.8
			l-0.8-2.1l-0.8,2.1v4.1h-2.7v-12h-1v-10.1c0-2.8-1.7-5.2-5.4-6v-1.3c0-1.1-0.3-1.9-1.3-1.9c-1,0-1.3,0.9-1.3,1.9v1.3
			c-3.7,0.8-5.4,3.2-5.4,6v10.1h-1v12h-2.7v-4.1l-0.8-2.1l-0.8,2.1v4.8l-2.7,4.7v42.8h-51.3v13.6h-14.8v43.5h-13.9v-34.2l1.5-1.4
			V574h-4L753,561.5v-2.6h1.6l-16.3-7.5l0.8-2.1l-3.6-1.7v-8h2.5v-1.5l-2.6-1.4c0-3.6-3.9-3.4-3.9-3.4h-0.2h-0.2
			c0,0-3.9-0.2-3.9,3.4l-2.7,1.4v1.5h2.5v8l-3.6,1.7l0.8,2.1l-16.3,7.5h1.6v2.6L690.5,574h-4v2.2l1.5,1.4v34.2h-12.9v-17v-28v-8.3
			c0-9.2-5.4-17.1-13.1-20.6c-0.6-3.8-3.4-6.7-7-7.5c1.2-0.7,2-2,2-3.5c0-2.2-1.7-4-3.9-4c-2.1,0-3.9,1.8-3.9,4c0,1.5,0.8,2.8,2,3.5
			c-3.6,0.8-6.4,3.8-7,7.5c-7.7,3.5-13.1,11.4-13.1,20.6v8.3h-12.3V528h-4.5h-0.1l-3.4-63.5l-1.8,28.6l-9.5-93.5l-9.5,93.5
			l-1.8-28.6l-3.4,63.5h-0.1h-4.4v38.9h-12.5v-16.2h0c-0.2-7.7-5.6-14.1-12.8-15.5c-0.1-1.6-1.4-2.9-3-2.9c-1.6,0-2.9,1.3-3,2.9
			c-7.2,1.4-12.6,7.8-12.8,15.5h0v16.2v6.8v38.2H523c0-5.5,0-10.8,0-13c0-5.3,2.8-7.2,2.8-7.2v-3.1c0,0-3.5,1-6.1-2.7
			c-2.7-3.7-7.4-9.2-13-9.2v-5.3l-7.4-4.5v-5.8h-8v5.8l-7.1,4.5v5.3c-5.9,0-10.5,5.5-13.1,9.2c-2.7,3.7-6.3,2.7-6.3,2.7v3.1
			c0,0,2.8,1.9,2.8,7.2c0,0.8,0,2,0,3.5h-12.2V576c0-4.8-2.5-9-6.3-11.3v-4.1c0-4.1-2.3-7.7-5.7-9.4v-1.8c0-3.1-2.2-5.6-5-6.2v-3.9
			l-1.1-1.2l-1.1,1.2v3.9c-2.9,0.6-5,3.1-5,6.2v1.8c-3.4,1.7-5.7,5.3-5.7,9.4v4.1c-3.8,2.3-6.3,6.5-6.3,11.3v35.9h-12.3v-22.2
			c0-4.2-2.2-7.9-5.5-9.9v-3.6c0-3.6-2-6.8-5-8.3l-5.4-11.9l-5.4,11.9c-3,1.5-5,4.7-5,8.3v3.6c-3.3,2-5.5,5.7-5.5,9.9v9.4h-11.8
			c0-3.3,0-5.9,0-7.1c0-5.3,2.5-7.2,2.5-7.2v-3.1c0,0-3.3,1-5.9-2.7c-2.5-3.7-6.8-9.2-12.3-9.2v-5.3l-6.8-4.5l-6.8,4.5v5.3
			c-5.5,0-9.8,5.5-12.3,9.2c-2.5,3.7-5.9,2.7-5.9,2.7v3.1c0,0,2.5,1.9,2.5,7.2c0,2.7,0,11.7,0,19.9h-12.6v-5.1c0-4.3-2.2-8-5.6-10.1
			V593c0-3.7-2.1-6.9-5.1-8.4V583c0-3.1-2.5-5.6-5.5-5.6s-5.5,2.5-5.5,5.6v1.6c-3,1.5-5.1,4.7-5.1,8.4v3.6c-3,1.8-5.1,5-5.5,8.8
			h-12.4v-15.8c0-4.2-2.2-7.9-5.5-9.9v-3.6c0-3.6-2-6.7-4.9-8.2c-0.1-3-2.6-5.5-5.6-5.5c-3,0-5.4,2.4-5.6,5.5
			c-2.9,1.5-4.9,4.6-4.9,8.2v3.6c-3.3,2-5.5,5.7-5.5,9.9v22.2h-12.3v-5.5c0-4.2-2.2-7.9-5.5-9.9v-4.5l-10.4-16.5l-10.4,16.5v4.5
			c-3.3,2-5.5,5.7-5.5,9.9v5.5h-13.5c0-5.3,0-10.5,0-12.7c0-5.3,2.5-7.2,2.5-7.2v-3.1c0,0-3.3,1-5.9-2.7c-2.5-3.7-6.8-9.2-12.3-9.2
			v-3.3h-2.7v-3.1h-8.1v3.1h-2.7v3.3c-5.5,0-9.8,5.5-12.3,9.2c-2.5,3.7-5.9,2.7-5.9,2.7v3.1c0,0,2.5,1.9,2.5,7.2c0,2.2,0,7.3,0,12.7
			h-12.6v-22.2c0-4.2-2.5-7.9-6.3-9.9v-3.6c0-3.6-2.3-6.8-5.7-8.3h0c0-3.5-2.7-6.3-6.1-6.3c-3.4,0-6.1,2.8-6.1,6.3h0
			c-3.4,1.5-5.7,4.7-5.7,8.3v3.6c-3.8,2-6.3,5.7-6.3,9.9v45.2h25.8h10.4h12.6c0,0.1,0,0.2,0,0.2h45c0,0,0-0.1,0-0.2H229h31.9h1008.4
			l0,0h0.3l-0.3-0.8V611.9z M1258,489.4c0-1.1,0.9-2,1.9-2c1.1,0,1.9,0.9,1.9,2v9.2h-3.8V489.4z M1251.7,489.4c0-1.1,0.9-2,1.9-2
			c1.1,0,1.9,0.9,1.9,2v9.2h-3.8V489.4z M868.9,512.6c3.8,0,7,3.2,7,7.1s-3.1,7.1-7,7.1s-7-3.2-7-7.1S865.1,512.6,868.9,512.6z
			 M595,537.4c0-2.6,2.1-4.7,4.6-4.7c2.5,0,4.6,2.1,4.6,4.7c0,2.6-2.1,4.7-4.6,4.7C597.1,542.1,595,540,595,537.4z M599.6,501.8
			c0,0,4.6,11.3,4.6,26.1H595C595,513.1,599.6,501.8,599.6,501.8z"/>
	</g>
</g>
<g id="Water">
	<linearGradient id="SVGID_5_" gradientUnits="userSpaceOnUse" x1="720" y1="900" x2="720" y2="635.0019">
		<stop  offset="0" style="stop-color:#445D75"/>
		<stop  offset="1" style="stop-color:#365271"/>
	</linearGradient>
	<rect x="0" y="635" class="st10" width="1440" height="265"/>
</g>
<g id="Boat" class="st26">
	<rect x="271.7" y="791.2" class="st27" width="9.2" height="6.7"/>
	<rect x="397.8" y="791.2" class="st27" width="9.2" height="6.7"/>
	<polygon class="st27" points="319.7,771.4 324.7,779.6 324.7,796 354,796 354,779.6 359,771.4 	"/>
	<g class="st28">
		<rect x="332.7" y="771.4" class="st29" width="13.3" height="8.2"/>
		<polygon class="st29" points="347.8,779.6 347.8,771.4 357.2,771.4 352.1,779.6 		"/>
		<polygon class="st29" points="330.8,779.6 330.8,771.4 321.5,771.4 326.6,779.6 		"/>
	</g>
	<polygon class="st27" points="319.7,771.4 359,771.4 354,767 324.7,767 	"/>
	
		<rect x="337.9" y="744.2" transform="matrix(4.452065e-11 1 -1 4.452065e-11 1091.299 412.6099)" class="st27" width="2.9" height="15.6"/>
	<rect x="338.4" y="750.5" class="st27" width="2" height="13.8"/>
	<rect x="324.7" y="756.8" class="st27" width="1.1" height="12.1"/>
	<rect x="352.9" y="756.8" class="st27" width="1.1" height="12.1"/>
	<circle class="st27" cx="325.2" cy="756.2" r="1.3"/>
	<circle class="st27" cx="353.4" cy="756.2" r="1.3"/>
	<rect x="332.6" y="763.6" class="st27" width="13.5" height="6.1"/>
	<rect x="301.6" y="791.2" class="st27" width="75.4" height="4.8"/>
	<linearGradient id="SVGID_6_" gradientUnits="userSpaceOnUse" x1="339.3445" y1="791.1801" x2="339.3445" y2="795.9884">
		<stop  offset="0" style="stop-color:#FFFFFF"/>
		<stop  offset="1" style="stop-color:#B5CAC5"/>
	</linearGradient>
	<rect x="301.6" y="791.2" style="display:inline;opacity:0.15;fill:url(#SVGID_6_);" width="75.4" height="4.8"/>
	<linearGradient id="SVGID_7_" gradientUnits="userSpaceOnUse" x1="339.3445" y1="785.4078" x2="339.3445" y2="791.1801">
		<stop  offset="0" style="stop-color:#FFFFFF"/>
		<stop  offset="1" style="stop-color:#B5CAC5"/>
	</linearGradient>
	<rect x="324.7" y="785.4" style="display:inline;opacity:0.15;fill:url(#SVGID_7_);" width="29.3" height="5.8"/>
	<polygon class="st32" points="280.9,767.5 290.8,767.5 288.5,764.3 290.8,761.1 280.9,761.1 	"/>
	<rect x="280.1" y="761.1" class="st27" width="0.7" height="34.9"/>
	<polygon class="st32" points="398.6,767.5 408.4,767.5 406.2,764.3 408.4,761.1 398.6,761.1 	"/>
	<rect x="397.8" y="761.1" class="st27" width="0.7" height="34.9"/>
	<rect x="268.7" y="795.9" class="st27" width="141.2" height="11.5"/>
	<g class="st28">
		<rect x="317.8" y="798.8" class="st29" width="6.3" height="8.6"/>
		<rect x="345.4" y="798.8" class="st29" width="6.3" height="8.6"/>
		<rect x="354.6" y="798.8" class="st29" width="6.3" height="8.6"/>
		<rect x="271.7" y="798.8" class="st29" width="6.3" height="8.6"/>
		<rect x="308.5" y="798.8" class="st29" width="6.3" height="8.6"/>
		<rect x="327" y="798.8" class="st29" width="6.3" height="8.6"/>
		<rect x="336.2" y="798.8" class="st29" width="6.3" height="8.6"/>
		<rect x="299.3" y="798.8" class="st29" width="6.3" height="8.6"/>
		<rect x="290.1" y="798.8" class="st29" width="6.3" height="8.6"/>
		<rect x="280.9" y="798.8" class="st29" width="6.3" height="8.6"/>
		<rect x="400.8" y="798.8" class="st29" width="6.3" height="8.6"/>
		<rect x="391.5" y="798.8" class="st29" width="6.3" height="8.6"/>
		<rect x="382.3" y="798.8" class="st29" width="6.3" height="8.6"/>
		<rect x="373.1" y="798.8" class="st29" width="6.3" height="8.6"/>
		<rect x="363.9" y="798.8" class="st29" width="6.3" height="8.6"/>
	</g>
	<polygon class="st27" points="431.8,820 246.9,820 239.5,814.3 439.2,814.3 	"/>
	<linearGradient id="SVGID_8_" gradientUnits="userSpaceOnUse" x1="339.3445" y1="820.0334" x2="339.3445" y2="814.3378">
		<stop  offset="0" style="stop-color:#FFFFFF"/>
		<stop  offset="1" style="stop-color:#B5CAC5"/>
	</linearGradient>
	<polygon style="display:inline;opacity:0.15;fill:url(#SVGID_8_);" points="431.8,820 246.9,820 239.5,814.3 439.2,814.3 	"/>
	<rect x="239.5" y="807.3" class="st27" width="199.7" height="7.1"/>
</g>
<g id="slussen_centralen">
	<rect x="1248.6" y="625.2" class="st47" width="184.3" height="103.8"/>
	<rect x="1313.7" y="555.8" class="st47" width="126.3" height="84.7"/>
	<g>
		<path class="st29" d="M1333.6,594.7c0-2.1-1.7-3.8-3.8-3.8s-3.8,1.7-3.8,3.8v12h7.6V594.7z"/>
		<path class="st29" d="M1372.9,594.7c0-2.1-1.7-3.8-3.8-3.8c-2.1,0-3.8,1.7-3.8,3.8v12h7.6V594.7z"/>
		<path class="st29" d="M1392.5,594.7c0-2.1-1.7-3.8-3.8-3.8c-2.1,0-3.8,1.7-3.8,3.8v12h7.6V594.7z"/>
		<path class="st29" d="M1412.2,594.7c0-2.1-1.7-3.8-3.8-3.8c-2.1,0-3.8,1.7-3.8,3.8v12h7.6V594.7z"/>
		<path class="st29" d="M1353.3,594.7c0-2.1-1.7-3.8-3.8-3.8s-3.8,1.7-3.8,3.8v12h7.6V594.7z"/>
		<path class="st29" d="M1431.8,594.7c0-2.1-1.7-3.8-3.8-3.8c-2.1,0-3.8,1.7-3.8,3.8v12h7.6V594.7z"/>
	</g>
	<g>
		<path class="st29" d="M1333.6,570.4c0-2.1-1.7-3.8-3.8-3.8s-3.8,1.7-3.8,3.8v12h7.6V570.4z"/>
		<path class="st29" d="M1372.9,570.4c0-2.1-1.7-3.8-3.8-3.8c-2.1,0-3.8,1.7-3.8,3.8v12h7.6V570.4z"/>
		<path class="st29" d="M1392.5,570.4c0-2.1-1.7-3.8-3.8-3.8c-2.1,0-3.8,1.7-3.8,3.8v12h7.6V570.4z"/>
		<path class="st29" d="M1412.2,570.4c0-2.1-1.7-3.8-3.8-3.8c-2.1,0-3.8,1.7-3.8,3.8v12h7.6V570.4z"/>
		<path class="st29" d="M1353.3,570.4c0-2.1-1.7-3.8-3.8-3.8s-3.8,1.7-3.8,3.8v12h7.6V570.4z"/>
		<path class="st29" d="M1431.8,570.4c0-2.1-1.7-3.8-3.8-3.8c-2.1,0-3.8,1.7-3.8,3.8v12h7.6V570.4z"/>
	</g>
	<polygon class="st48" points="1440,619.4 1243.7,619.4 1248.1,625.2 1440,625.2 	"/>
	<polygon class="st49" points="1440,543.4 1319.8,543.4 1313.7,555.8 1440,555.8 	"/>
	<polygon class="st49" points="1440,608.8 1278.4,608.8 1243.7,619.4 1440,619.4 	"/>
	<polygon class="st49" points="1440,579.1 1433.9,576.9 1415.3,576.9 1384.1,588.2 1440,588.2 	"/>
	<rect x="1384.1" y="588.2" class="st48" width="55.9" height="10.4"/>
	<polygon class="st48" points="1440,598.6 1375.3,598.6 1379.8,604.4 1440,604.4 	"/>
	<rect x="1375.3" y="596.1" class="st49" width="64.7" height="2.5"/>
	<rect x="1380.9" y="604.4" class="st50" width="59.1" height="124.6"/>
	<g>
		<path class="st29" d="M1272.2,671.5c0-3-2.4-5.4-5.4-5.4c-3,0-5.4,2.4-5.4,5.4v17h10.8V671.5z"/>
		<path class="st29" d="M1292.9,671.5c0-3-2.4-5.4-5.4-5.4c-3,0-5.4,2.4-5.4,5.4v17h10.8V671.5z"/>
		<path class="st29" d="M1313.6,671.5c0-3-2.4-5.4-5.4-5.4s-5.4,2.4-5.4,5.4v17h10.8V671.5z"/>
		<path class="st29" d="M1334.2,671.5c0-3-2.4-5.4-5.4-5.4c-3,0-5.4,2.4-5.4,5.4v17h10.8V671.5z"/>
		<path class="st29" d="M1375.6,671.5c0-3-2.4-5.4-5.4-5.4c-3,0-5.4,2.4-5.4,5.4v17h10.8V671.5z"/>
		<path class="st29" d="M1354.9,671.5c0-3-2.4-5.4-5.4-5.4s-5.4,2.4-5.4,5.4v17h10.8V671.5z"/>
		<path class="st29" d="M1270.8,703.6c0-2.2-1.8-4-4-4s-4,1.8-4,4v12.6h8V703.6z"/>
		<path class="st29" d="M1312.2,703.6c0-2.2-1.8-4-4-4s-4,1.8-4,4v12.6h8V703.6z"/>
		<path class="st29" d="M1332.8,703.6c0-2.2-1.8-4-4-4s-4,1.8-4,4v12.6h8V703.6z"/>
		<path class="st29" d="M1353.5,703.6c0-2.2-1.8-4-4-4s-4,1.8-4,4v12.6h8V703.6z"/>
		<path class="st29" d="M1291.5,703.6c0-2.2-1.8-4-4-4s-4,1.8-4,4v12.6h8V703.6z"/>
		<path class="st29" d="M1374.1,703.6c0-2.2-1.8-4-4-4c-2.2,0-4,1.8-4,4v12.6h8V703.6z"/>
		<g>
			<path class="st29" d="M1369.5,640.7c0-1-0.8-1.8-1.8-1.8s-1.8,0.8-1.8,1.8v9.8h3.7V640.7z"/>
			<path class="st29" d="M1374.4,640.7c0-1-0.8-1.8-1.8-1.8s-1.8,0.8-1.8,1.8v9.8h3.7V640.7z"/>
		</g>
		<g>
			<path class="st29" d="M1348.9,640.7c0-1-0.8-1.8-1.8-1.8c-1,0-1.8,0.8-1.8,1.8v9.8h3.7V640.7z"/>
			<path class="st29" d="M1353.8,640.7c0-1-0.8-1.8-1.8-1.8s-1.8,0.8-1.8,1.8v9.8h3.7V640.7z"/>
		</g>
		<g>
			<path class="st29" d="M1328.2,640.7c0-1-0.8-1.8-1.8-1.8s-1.8,0.8-1.8,1.8v9.8h3.7V640.7z"/>
			<path class="st29" d="M1333.1,640.7c0-1-0.8-1.8-1.8-1.8s-1.8,0.8-1.8,1.8v9.8h3.7V640.7z"/>
		</g>
		<g>
			<path class="st29" d="M1307.5,640.7c0-1-0.8-1.8-1.8-1.8s-1.8,0.8-1.8,1.8v9.8h3.7V640.7z"/>
			<path class="st29" d="M1312.4,640.7c0-1-0.8-1.8-1.8-1.8s-1.8,0.8-1.8,1.8v9.8h3.7V640.7z"/>
		</g>
		<g>
			<path class="st29" d="M1286.9,640.7c0-1-0.8-1.8-1.8-1.8s-1.8,0.8-1.8,1.8v9.8h3.7V640.7z"/>
			<path class="st29" d="M1291.8,640.7c0-1-0.8-1.8-1.8-1.8s-1.8,0.8-1.8,1.8v9.8h3.7V640.7z"/>
		</g>
		<g>
			<path class="st29" d="M1266.2,640.7c0-1-0.8-1.8-1.8-1.8s-1.8,0.8-1.8,1.8v9.8h3.7V640.7z"/>
			<path class="st29" d="M1271.1,640.7c0-1-0.8-1.8-1.8-1.8s-1.8,0.8-1.8,1.8v9.8h3.7V640.7z"/>
		</g>
		<path class="st29" d="M1404.6,702.2c0-4-3.3-7.3-7.3-7.3s-7.3,3.3-7.3,7.3v19h14.6V702.2z"/>
		<path class="st29" d="M1432.4,702.2c0-4-3.3-7.3-7.3-7.3c-4,0-7.3,3.3-7.3,7.3v19h14.6V702.2z"/>
		<g>
			<path class="st29" d="M1424,669.4c0-1.8-1.5-3.3-3.3-3.3s-3.3,1.5-3.3,3.3v17.9h6.7V669.4z"/>
			<path class="st29" d="M1432.9,669.4c0-1.8-1.5-3.3-3.3-3.3c-1.8,0-3.3,1.5-3.3,3.3v17.9h6.7V669.4z"/>
		</g>
		<g>
			<path class="st29" d="M1396.2,669.4c0-1.8-1.5-3.3-3.3-3.3c-1.8,0-3.3,1.5-3.3,3.3v17.9h6.7V669.4z"/>
			<path class="st29" d="M1405.2,669.4c0-1.8-1.5-3.3-3.3-3.3s-3.3,1.5-3.3,3.3v17.9h6.7V669.4z"/>
		</g>
		<g>
			<path class="st29" d="M1424,632.6c0-1.8-1.5-3.3-3.3-3.3s-3.3,1.5-3.3,3.3v17.9h6.7V632.6z"/>
			<path class="st29" d="M1432.9,632.6c0-1.8-1.5-3.3-3.3-3.3c-1.8,0-3.3,1.5-3.3,3.3v17.9h6.7V632.6z"/>
		</g>
		<g>
			<path class="st29" d="M1396.2,632.6c0-1.8-1.5-3.3-3.3-3.3c-1.8,0-3.3,1.5-3.3,3.3v17.9h6.7V632.6z"/>
			<path class="st29" d="M1405.2,632.6c0-1.8-1.5-3.3-3.3-3.3s-3.3,1.5-3.3,3.3v17.9h6.7V632.6z"/>
		</g>
	</g>
	<rect x="0.8" y="777.8" class="st47" width="158.1" height="42"/>
	<rect y="570.6" class="st52" width="26" height="38.2"/>
	<polygon class="st49" points="22.3,558 0,558 0,572.5 29.3,572.5 	"/>
	<g>
		<polyline class="st53" points="110.2,754.6 134.3,730.4 110.2,706.3 134.3,682.2 		"/>
		<polyline class="st53" points="110.2,682.2 134.3,706.3 110.2,730.4 134.3,754.6 		"/>
	</g>
	<g>
		<polyline class="st53" points="134.3,682.2 110.2,658.1 134.3,634 110.2,609.8 134.3,585.7 110.2,561.5 134.3,537.4 110.2,513.3 
			134.3,489.1 		"/>
		<polyline class="st53" points="110.2,489.1 134.3,513.3 110.2,537.4 134.3,561.5 110.2,585.7 134.3,609.8 110.2,634 134.3,658.1 
			110.2,682.2 		"/>
	</g>
	<rect x="0" y="463.2" class="st49" width="158.9" height="27.3"/>
	<rect x="110.2" y="445.3" class="st49" width="24.1" height="18.2"/>
	<rect x="100.1" y="427.4" class="st49" width="44.3" height="27.9"/>
	<line class="st54" x1="134.3" y1="489.1" x2="134.3" y2="718.3"/>
	<line class="st54" x1="110.2" y1="718.3" x2="110.2" y2="489.1"/>
	<rect x="-0.8" y="615.3" class="st52" width="78.8" height="105.1"/>
	<rect x="60" y="670.7" class="st55" width="10.7" height="12.3"/>
	<rect x="41.6" y="670.7" class="st55" width="10.7" height="12.3"/>
	<rect x="60" y="650.7" class="st55" width="10.7" height="12.3"/>
	<rect x="41.6" y="650.7" class="st55" width="10.7" height="12.3"/>
	<rect x="60" y="690.7" class="st55" width="10.7" height="12.3"/>
	<rect x="41.6" y="690.7" class="st55" width="10.7" height="12.3"/>
	<rect x="60" y="630.7" class="st55" width="10.7" height="12.3"/>
	<polygon class="st49" points="73,597.7 0,597.7 0,620.3 84,620.3 	"/>
	<rect x="53" y="587.4" class="st49" width="7.5" height="11"/>
	<rect x="20.8" y="657" class="st29" width="8" height="9.7"/>
	<rect x="20.8" y="672.3" class="st29" width="8" height="9.7"/>
	<rect x="20.8" y="687.6" class="st29" width="8" height="9.7"/>
	<rect x="5.6" y="657" class="st29" width="8" height="9.7"/>
	<rect x="5.6" y="672.3" class="st29" width="8" height="9.7"/>
	<rect x="5.6" y="687.6" class="st29" width="8" height="9.7"/>
	<rect x="36" y="626.5" class="st29" width="8" height="9.7"/>
	<rect x="20.8" y="626.5" class="st29" width="8" height="9.7"/>
	<rect x="20.8" y="641.8" class="st29" width="8" height="9.7"/>
	<rect x="20.8" y="657" class="st29" width="8" height="9.7"/>
	<rect x="5.6" y="626.5" class="st29" width="8" height="9.7"/>
	<rect x="5.6" y="641.8" class="st29" width="8" height="9.7"/>
	<rect x="20.8" y="687.6" class="st29" width="8" height="9.7"/>
	<rect x="20.8" y="702.9" class="st29" width="8" height="9.7"/>
	<rect x="5.6" y="687.6" class="st29" width="8" height="9.7"/>
	<rect x="5.6" y="702.9" class="st29" width="8" height="9.7"/>
	<polygon class="st50" points="100.7,776 100.7,666.4 87.9,650.3 87.9,645.3 62.2,617.9 36.6,645.3 36.6,650.3 23.8,666.4 23.8,776 
			"/>
	<g>
		<rect x="76.8" y="658.4" class="st29" width="10.5" height="12.7"/>
		<rect x="76.8" y="678.5" class="st29" width="10.5" height="12.7"/>
		<rect x="76.8" y="698.6" class="st29" width="10.5" height="12.7"/>
		<rect x="56.8" y="658.4" class="st29" width="10.5" height="12.7"/>
		<rect x="56.8" y="678.5" class="st29" width="10.5" height="12.7"/>
		<rect x="56.8" y="638.3" class="st29" width="10.5" height="12.7"/>
		<rect x="56.8" y="698.6" class="st29" width="10.5" height="12.7"/>
		<rect x="36.8" y="658.4" class="st29" width="10.5" height="12.7"/>
		<rect x="36.8" y="678.5" class="st29" width="10.5" height="12.7"/>
		<rect x="36.8" y="698.6" class="st29" width="10.5" height="12.7"/>
	</g>
	<polygon class="st49" points="100.7,667.6 86.6,649.4 86.6,644.5 62.2,618.1 37.9,644.5 37.9,649.4 23.8,667.6 22.3,666.5 
		36,648.8 36,643.7 62.2,615.3 88.5,643.7 88.5,648.8 102.1,666.5 	"/>
	<rect y="718.3" class="st49" width="135.3" height="18.6"/>
	<text transform="matrix(1 0 0 1 29.0029 732.5014)" class="st29 st56 st57">TUNNELBANA</text>
	<rect y="737" class="st50" width="135.3" height="40.8"/>
	<rect x="26.2" y="736.8" class="st52" width="83" height="40.9"/>
	<path class="st47" d="M1440.9,747.1h-77.4v51.1c18.7-16.6,45.8-29.1,77.4-36.4V747.1z"/>
	<path class="st47" d="M1364.1,799c-31.5-27.5-84.6-44.5-144.2-44.5s-113.2,16.2-144.2,43.7v-50.8h288.5L1364.1,799z"/>
	<path class="st47" d="M1076.2,799c-31.5-27.5-84.7-44.5-144.2-44.5s-113.2,16.2-144.2,43.7v-50.8h288.6L1076.2,799z"/>
	<g>
		<polygon class="st47" points="1080.3,730.5 1079.1,729.3 1070.5,738 1061.8,729.3 1060.7,730.5 1069.3,739.1 1060.7,747.8 
			1061.8,748.9 1070.5,740.3 1079.1,748.9 1080.3,747.8 1071.6,739.1 		"/>
		<polygon class="st47" points="1099.8,730.5 1098.6,729.3 1090,738 1081.3,729.3 1080.1,730.5 1088.8,739.1 1080.1,747.8 
			1081.3,748.9 1090,740.3 1098.6,748.9 1099.8,747.8 1091.1,739.1 		"/>
		<polygon class="st47" points="1119.2,730.5 1118.1,729.3 1109.4,738 1100.8,729.3 1099.6,730.5 1108.3,739.1 1099.6,747.8 
			1100.8,748.9 1109.4,740.3 1118.1,748.9 1119.2,747.8 1110.6,739.1 		"/>
		<polygon class="st47" points="1138.7,730.5 1137.5,729.3 1128.9,738 1120.3,729.3 1119.1,730.5 1127.7,739.1 1119.1,747.8 
			1120.3,748.9 1128.9,740.3 1137.5,748.9 1138.7,747.8 1130.1,739.1 		"/>
		<polygon class="st47" points="1158.2,730.5 1157,729.3 1148.4,738 1139.7,729.3 1138.6,730.5 1147.2,739.1 1138.6,747.8 
			1139.7,748.9 1148.4,740.3 1157,748.9 1158.2,747.8 1149.6,739.1 		"/>
		<polygon class="st47" points="1177.7,730.5 1176.5,729.3 1167.9,738 1159.2,729.3 1158.1,730.5 1166.7,739.1 1158.1,747.8 
			1159.2,748.9 1167.9,740.3 1176.5,748.9 1177.7,747.8 1169,739.1 		"/>
		<polygon class="st47" points="1197.1,730.5 1196,729.3 1187.3,738 1178.7,729.3 1177.5,730.5 1186.2,739.1 1177.5,747.8 
			1178.7,748.9 1187.3,740.3 1196,748.9 1197.1,747.8 1188.5,739.1 		"/>
		<polygon class="st47" points="1216.6,730.5 1215.4,729.3 1206.8,738 1198.2,729.3 1197,730.5 1205.6,739.1 1197,747.8 
			1198.2,748.9 1206.8,740.3 1215.4,748.9 1216.6,747.8 1208,739.1 		"/>
		<polygon class="st47" points="1236.1,730.5 1234.9,729.3 1226.3,738 1217.7,729.3 1216.5,730.5 1225.1,739.1 1216.5,747.8 
			1217.7,748.9 1226.3,740.3 1234.9,748.9 1236.1,747.8 1227.5,739.1 		"/>
		<polygon class="st47" points="1255.6,730.5 1254.4,729.3 1245.8,738 1237.1,729.3 1236,730.5 1244.6,739.1 1236,747.8 
			1237.1,748.9 1245.8,740.3 1254.4,748.9 1255.6,747.8 1246.9,739.1 		"/>
		<polygon class="st47" points="1275,730.5 1273.9,729.3 1265.2,738 1256.6,729.3 1255.4,730.5 1264.1,739.1 1255.4,747.8 
			1256.6,748.9 1265.2,740.3 1273.9,748.9 1275,747.8 1266.4,739.1 		"/>
		<polygon class="st47" points="1294.5,730.5 1293.4,729.3 1284.7,738 1276.1,729.3 1274.9,730.5 1283.5,739.1 1274.9,747.8 
			1276.1,748.9 1284.7,740.3 1293.4,748.9 1294.5,747.8 1285.9,739.1 		"/>
		<polygon class="st47" points="1314,730.5 1312.8,729.3 1304.2,738 1295.6,729.3 1294.4,730.5 1303,739.1 1294.4,747.8 
			1295.6,748.9 1304.2,740.3 1312.8,748.9 1314,747.8 1305.4,739.1 		"/>
		<polygon class="st47" points="1333.5,730.5 1332.3,729.3 1323.7,738 1315,729.3 1313.9,730.5 1322.5,739.1 1313.9,747.8 
			1315,748.9 1323.7,740.3 1332.3,748.9 1333.5,747.8 1324.8,739.1 		"/>
		<polygon class="st47" points="1353,730.5 1351.8,729.3 1343.1,738 1334.5,729.3 1333.3,730.5 1342,739.1 1333.3,747.8 
			1334.5,748.9 1343.1,740.3 1351.8,748.9 1353,747.8 1344.3,739.1 		"/>
		<polygon class="st47" points="1372.4,730.5 1371.3,729.3 1362.6,738 1354,729.3 1352.8,730.5 1361.4,739.1 1352.8,747.8 
			1354,748.9 1362.6,740.3 1371.3,748.9 1372.4,747.8 1363.8,739.1 		"/>
		<polygon class="st47" points="1391.9,730.5 1390.7,729.3 1382.1,738 1373.5,729.3 1372.3,730.5 1380.9,739.1 1372.3,747.8 
			1373.5,748.9 1382.1,740.3 1390.7,748.9 1391.9,747.8 1383.3,739.1 		"/>
		<polygon class="st47" points="1411.4,730.5 1410.2,729.3 1401.6,738 1392.9,729.3 1391.8,730.5 1400.4,739.1 1391.8,747.8 
			1392.9,748.9 1401.6,740.3 1410.2,748.9 1411.4,747.8 1402.7,739.1 		"/>
		<polygon class="st47" points="1430.9,730.5 1429.7,729.3 1421.1,738 1412.4,729.3 1411.2,730.5 1419.9,739.1 1411.2,747.8 
			1412.4,748.9 1421.1,740.3 1429.7,748.9 1430.9,747.8 1422.2,739.1 		"/>
		<polyline class="st47" points="1440.5,738 1431.9,729.3 1430.7,730.5 1439.4,739.1 1430.7,747.8 1431.9,748.9 1440.5,740.3 		"/>
		<polygon class="st47" points="866,730.5 864.9,729.3 856.2,738 847.6,729.3 846.4,730.5 855.1,739.1 846.4,747.8 847.6,748.9 
			856.2,740.3 864.9,748.9 866,747.8 857.4,739.1 		"/>
		<polygon class="st47" points="885.5,730.5 884.3,729.3 875.7,738 867.1,729.3 865.9,730.5 874.5,739.1 865.9,747.8 867.1,748.9 
			875.7,740.3 884.3,748.9 885.5,747.8 876.9,739.1 		"/>
		<polygon class="st47" points="905,730.5 903.8,729.3 895.2,738 886.6,729.3 885.4,730.5 894,739.1 885.4,747.8 886.6,748.9 
			895.2,740.3 903.8,748.9 905,747.8 896.4,739.1 		"/>
		<polygon class="st47" points="924.5,730.5 923.3,729.3 914.7,738 906,729.3 904.9,730.5 913.5,739.1 904.9,747.8 906,748.9 
			914.7,740.3 923.3,748.9 924.5,747.8 915.8,739.1 		"/>
		<polygon class="st47" points="943.9,730.5 942.8,729.3 934.1,738 925.5,729.3 924.3,730.5 933,739.1 924.3,747.8 925.5,748.9 
			934.1,740.3 942.8,748.9 943.9,747.8 935.3,739.1 		"/>
		<polygon class="st47" points="963.4,730.5 962.3,729.3 953.6,738 945,729.3 943.8,730.5 952.4,739.1 943.8,747.8 945,748.9 
			953.6,740.3 962.3,748.9 963.4,747.8 954.8,739.1 		"/>
		<polygon class="st47" points="982.9,730.5 981.7,729.3 973.1,738 964.5,729.3 963.3,730.5 971.9,739.1 963.3,747.8 964.5,748.9 
			973.1,740.3 981.7,748.9 982.9,747.8 974.3,739.1 		"/>
		<polygon class="st47" points="1002.4,730.5 1001.2,729.3 992.6,738 983.9,729.3 982.8,730.5 991.4,739.1 982.8,747.8 983.9,748.9 
			992.6,740.3 1001.2,748.9 1002.4,747.8 993.7,739.1 		"/>
		<polygon class="st47" points="1021.9,730.5 1020.7,729.3 1012,738 1003.4,729.3 1002.2,730.5 1010.9,739.1 1002.2,747.8 
			1003.4,748.9 1012,740.3 1020.7,748.9 1021.9,747.8 1013.2,739.1 		"/>
		<polygon class="st47" points="1041.3,730.5 1040.2,729.3 1031.5,738 1022.9,729.3 1021.7,730.5 1030.4,739.1 1021.7,747.8 
			1022.9,748.9 1031.5,740.3 1040.2,748.9 1041.3,747.8 1032.7,739.1 		"/>
		<polygon class="st47" points="1060.8,730.5 1059.6,729.3 1051,738 1042.4,729.3 1041.2,730.5 1049.8,739.1 1041.2,747.8 
			1042.4,748.9 1051,740.3 1059.6,748.9 1060.8,747.8 1052.2,739.1 		"/>
		<rect x="788" y="729" class="st47" width="652" height="2.2"/>
	</g>
	<rect x="1061.1" y="747.1" class="st52" width="30.5" height="40.1"/>
	<polygon class="st50" points="1099.8,819.8 1052.8,819.8 1061.1,787.2 1091.6,787.2 	"/>
	<rect x="1349" y="747.1" class="st52" width="30.5" height="40.1"/>
	<polygon class="st50" points="1387.8,819.8 1340.7,819.8 1349,787.2 1379.5,787.2 	"/>
</g>
<g id="Futurniture">
	<path class="st47" d="M581.1,799.5c13.4,0-6.2,22.3,7.2,22.3c13.4,0,55.2-22.1,68.5-22.1s-6.2,22.3,7.2,22.3s55.2-22.1,68.5-22.1
		s-6.2,22.3,7.2,22.3s55.2-22.1,68.5-22.1c13.4,0-6.2,22.3,7.2,22.3s55.2-22.1,68.5-22.1c10.9,0-0.1,14.8,2.7,20.3v-0.1
		c6.8,0,20.9-5.7,34.9-11.3C875.8,718.5,802.6,647,720,647c-86.1,0-162.1,77.9-207.4,174C530,817.4,569.1,799.5,581.1,799.5z"/>
	<rect x="595.4" y="629.3" class="st97" width="249.2" height="74.3"/>
	<polyline class="st49" points="749.6,591.4 749.6,594.7 763.6,594.7 763.6,591.4 	"/>
	<polyline class="st49" points="675.6,594.1 676.3,597.1 687.8,597.1 688.5,594.1 	"/>
	<polygon class="st49" points="853.7,629.5 829.9,603.4 610.1,603.4 586.3,629.5 	"/>
	<rect x="750.9" y="592.9" class="st49" width="11.4" height="14.2"/>
	<rect x="676.8" y="595.5" class="st49" width="10.5" height="13.1"/>
	<g>
		<g>
			<g>
				<rect x="802.5" y="672.5" class="st29" width="10.2" height="19"/>
				<path class="st29" d="M812.2,673.1V691H803v-17.9H812.2 M813.3,672h-11.3v20.1h11.3V672L813.3,672z"/>
			</g>
			<g>
				<rect x="777.4" y="672.5" class="st29" width="10.2" height="19"/>
				<path class="st29" d="M787,673.1V691h-9.1v-17.9H787 M788.1,672h-11.3v20.1h11.3V672L788.1,672z"/>
			</g>
			<g>
				<rect x="752.1" y="672.5" class="st29" width="10.2" height="19"/>
				<path class="st29" d="M761.7,673.1V691h-9.1v-17.9H761.7 M762.8,672h-11.3v20.1h11.3V672L762.8,672z"/>
			</g>
			<g>
				<rect x="726.8" y="672.5" class="st29" width="10.2" height="19"/>
				<path class="st29" d="M736.4,673.1V691h-9.1v-17.9H736.4 M737.5,672h-11.3v20.1h11.3V672L737.5,672z"/>
			</g>
			<g>
				<rect x="701.6" y="672.5" class="st29" width="10.2" height="19"/>
				<path class="st29" d="M711.3,673.1V691h-9.1v-17.9H711.3 M712.4,672h-11.3v20.1h11.3V672L712.4,672z"/>
			</g>
			<g>
				<rect x="802.5" y="637.9" class="st29" width="10.2" height="19"/>
				<path class="st29" d="M812.2,638.5v17.9H803v-17.9H812.2 M813.3,637.4h-11.3v20.1h11.3V637.4L813.3,637.4z"/>
			</g>
			<g>
				<rect x="777.4" y="637.9" class="st29" width="10.2" height="19"/>
				<path class="st29" d="M787,638.5v17.9h-9.1v-17.9H787 M788.1,637.4h-11.3v20.1h11.3V637.4L788.1,637.4z"/>
			</g>
			<g>
				<rect x="625.9" y="637.9" class="st29" width="10.2" height="19"/>
			</g>
			<g>
				<rect x="625.9" y="672.5" class="st29" width="10.2" height="19"/>
				<path class="st29" d="M635.5,673.1V691h-9.1v-17.9H635.5 M636.6,672h-11.3v20.1h11.3V672L636.6,672z"/>
			</g>
			<g>
				<rect x="600.6" y="637.9" class="st29" width="10.2" height="19"/>
				<path class="st29" d="M610.2,638.5v17.9h-9.1v-17.9H610.2 M611.3,637.4H600v20.1h11.3V637.4L611.3,637.4z"/>
			</g>
			<g>
				<rect x="752.1" y="637.9" class="st29" width="10.2" height="19"/>
				<path class="st29" d="M761.7,638.5v17.9h-9.1v-17.9H761.7 M762.8,637.4h-11.3v20.1h11.3V637.4L762.8,637.4z"/>
			</g>
			<g>
				<rect x="726.8" y="637.9" class="st29" width="10.2" height="19"/>
				<path class="st29" d="M736.4,638.5v17.9h-9.1v-17.9H736.4 M737.5,637.4h-11.3v20.1h11.3V637.4L737.5,637.4z"/>
			</g>
			<g>
				<rect x="701.6" y="637.9" class="st29" width="10.2" height="19"/>
				<path class="st29" d="M711.3,638.5v17.9h-9.1v-17.9H711.3 M712.4,637.4h-11.3v20.1h11.3V637.4L712.4,637.4z"/>
			</g>
			<g>
				<rect x="827.8" y="637.9" class="st29" width="10.2" height="19"/>
				<path class="st29" d="M837.5,638.5v17.9h-9.1v-17.9H837.5 M838.5,637.4h-11.3v20.1h11.3V637.4L838.5,637.4z"/>
			</g>
			<g>
				<rect x="673.6" y="660.7" class="st29" width="15.4" height="18.1"/>
				<path class="st29" d="M688.5,661.3v17h-14.3v-17H688.5 M689.6,660.2h-16.5v19.2h16.5V660.2L689.6,660.2z"/>
			</g>
			<g>
				<rect x="673.6" y="638.1" class="st29" width="15.4" height="5.5"/>
				<path class="st29" d="M688.5,638.6v4.4h-14.3v-4.4H688.5 M689.6,637.5h-16.5v6.6h16.5V637.5L689.6,637.5z"/>
			</g>
			<rect x="651" y="671.1" class="st29" width="11.6" height="32.2"/>
		</g>
		<g>
			<rect x="651" y="637.9" class="st29" width="10.2" height="19"/>
			<path class="st29" d="M660.1,638.5v17.9H651v-17.9H660.1 M661.2,637.4h-11.3v20.1h11.3V637.4L661.2,637.4z"/>
		</g>
	</g>
</g>
<g id="Bus" class="st26">
	<g class="st28">
		<polygon class="st101" points="1023.3,712 1038.2,703 1081,703 1081,714 1023.2,714 		"/>
		
			<rect x="984.6" y="708.6" transform="matrix(-1 -4.284185e-11 4.284185e-11 -1 1989.0854 1423.4059)" class="st101" width="19.9" height="6.2"/>
		<path class="st59" d="M975.2,740.6l8.2,3.2h117.2l13.6-3v-30.2c0,0-101.5,0-133.5,0"/>
		<polygon class="st1" points="975.6,738.4 1113.7,738.4 1113.7,736.4 976,736.4 		"/>
		<circle class="st47" cx="1010.9" cy="740.9" r="6.4"/>
		<circle class="st47" cx="1075" cy="740.9" r="6.4"/>
		
			<rect x="1043.2" y="716.6" transform="matrix(-1 -4.504365e-11 4.504365e-11 -1 2093.2874 1457.3184)" class="st102" width="6.9" height="24.1"/>
		
			<rect x="1053.1" y="716.6" transform="matrix(-1 -4.345825e-11 4.345825e-11 -1 2113.0955 1457.3184)" class="st102" width="6.9" height="24.1"/>
		
			<rect x="984.6" y="716.6" transform="matrix(-1 -4.649671e-11 4.649671e-11 -1 1976.1627 1457.3184)" class="st102" width="6.9" height="24.1"/>
		
			<rect x="994.5" y="716.6" transform="matrix(-1 -4.649671e-11 4.649671e-11 -1 1995.9709 1457.3184)" class="st102" width="6.9" height="24.1"/>
		
			<rect x="1084.6" y="716.6" transform="matrix(-1 -4.517554e-11 4.517554e-11 -1 2176.0259 1457.3184)" class="st102" width="6.9" height="24.1"/>
		
			<rect x="1094.5" y="716.6" transform="matrix(-1 -4.517554e-11 4.517554e-11 -1 2195.8342 1457.3184)" class="st102" width="6.9" height="24.1"/>
		
			<rect x="1063" y="716.6" transform="matrix(-1 -4.497037e-11 4.497037e-11 -1 2144.4832 1447.1709)" class="st102" width="18.5" height="13.9"/>
		
			<rect x="1025.8" y="716.6" transform="matrix(-1 -4.430779e-11 4.430779e-11 -1 2065.865 1447.1709)" class="st102" width="14.2" height="13.9"/>
		<polygon class="st102" points="976.5,733 982,733 982,716 979.6,716 		"/>
		
			<rect x="1004.5" y="716.6" transform="matrix(-1 -4.472213e-11 4.472213e-11 -1 2027.2792 1447.1709)" class="st102" width="18.3" height="13.9"/>
		
			<rect x="1104.4" y="716.6" transform="matrix(-1 -4.444990e-11 4.444990e-11 -1 2215.2637 1447.1709)" class="st102" width="6.5" height="13.9"/>
	</g>
</g>
<g id="time" class="st26">
	<g class="st28">
		<text transform="matrix(1 0 0 1 145.0097 137.8063)" class="st29 st103 st104">NEXT BOAT TO SLUSSEN LEAVES IN:</text>
		<text transform="matrix(1 0 0 1 91.8889 260.3249)"><tspan x="0" y="0" class="st29 st103 st105">00</tspan><tspan x="156.4" y="-9.6" class="st29 st103 st105">:</tspan><tspan x="195.2" y="0" class="st29 st103 st105">00</tspan><tspan x="351.6" y="-9.6" class="st29 st103 st105">:</tspan><tspan x="390.4" y="0" class="st29 st103 st105">00</tspan></text>
		<text transform="matrix(1 0 0 1 764.8578 137.8066)" class="st29 st103 st104">NEXT BUS TO CENTRAL STATION LEAVES IN:</text>
		<text transform="matrix(1 0 0 1 759.8781 260.3249)"><tspan x="0" y="0" class="st29 st103 st105">00</tspan><tspan x="156.4" y="-9.6" class="st29 st103 st105">:</tspan><tspan x="195.2" y="0" class="st29 st103 st105">00</tspan><tspan x="351.6" y="-9.6" class="st29 st103 st105">:</tspan><tspan x="390.4" y="0" class="st29 st103 st105">00</tspan></text>
	</g>
</g>
<g id="Logo">
	<g>
		<g>
			<defs>
				<rect id="SVGID_54_" x="22" y="0" width="209.7" height="117.9"/>
			</defs>
			<clipPath id="SVGID_9_">
				<use xlink:href="#SVGID_54_"  style="overflow:visible;"/>
			</clipPath>
			<polygon style="clip-path:url(#SVGID_9_);fill:#FFFFFF;" points="59.6,44.6 47.2,44.6 46.8,44.6 43.2,67 43.6,67 49,67 49.4,67 
				50.8,58.2 56.8,58.2 57.2,58.2 58,53.3 57.6,53.3 51.6,53.3 52.2,49.5 58.9,49.5 59.3,49.5 60,44.6 			"/>
			<g style="clip-path:url(#SVGID_9_);">
				<defs>
					<rect id="SVGID_56_" x="22" y="0" width="209.7" height="117.9"/>
				</defs>
				<clipPath id="SVGID_10_">
					<use xlink:href="#SVGID_56_"  style="overflow:visible;"/>
				</clipPath>
				<path style="clip-path:url(#SVGID_10_);fill:#FFFFFF;" d="M65.7,51.8l-1.3,8.2c-0.3,1.9,0,3.3,2.2,3.3c2.2,0,2.9-1.4,3.2-3.3
					l1.3-8.2h5.4L75.1,61c-0.8,5-4.6,6.6-9.2,6.6c-4.6,0-7.9-1.5-7.1-6.6l1.5-9.2H65.7z"/>
				<polygon style="clip-path:url(#SVGID_10_);fill:#FFFFFF;" points="83.9,67 78.5,67 80.2,56.2 78.4,56.2 79.1,51.8 80.9,51.8 
					81.6,47.2 87,47.2 86.3,51.8 89.4,51.8 88.7,56.2 85.6,56.2 				"/>
				<path style="clip-path:url(#SVGID_10_);fill:#FFFFFF;" d="M97.7,51.8l-1.3,8.2c-0.3,1.9,0,3.3,2.2,3.3s2.9-1.4,3.2-3.3l1.3-8.2
					h5.4L107,61c-0.8,5-4.6,6.6-9.2,6.6c-4.6,0-7.9-1.5-7.1-6.6l1.5-9.2H97.7z"/>
				<path style="clip-path:url(#SVGID_10_);fill:#FFFFFF;" d="M115.7,54.3L115.7,54.3c1.4-1.9,3.3-2.7,5.4-2.7h1l-0.8,5.2
					c-0.7-0.4-1.4-0.5-2.2-0.5c-3,0-4.1,2-4.5,4.6l-1,6.2h-5.4l2.4-15.3h5.4L115.7,54.3z"/>
				<path style="clip-path:url(#SVGID_10_);fill:#FFFFFF;" d="M129.4,53.7L129.4,53.7c1.6-1.8,3.2-2.5,5.3-2.5
					c4.1,0,5.3,2.6,4.7,6.3L138,67h-5.4l1.2-7.4c0.2-1.5,0.9-4-1.8-4c-2.2,0-3.1,1.6-3.4,3.5l-1.3,7.9h-5.4l2.4-15.3h5.4L129.4,53.7
					z"/>
				<path style="clip-path:url(#SVGID_10_);fill:#FFFFFF;" d="M146.1,67h-5.4l2.4-15.3h5.4L146.1,67z M149.8,45.9
					c-0.3,1.7-1.8,3-3.5,3c-1.7,0-2.8-1.4-2.6-3c0.3-1.7,1.8-3,3.5-3C148.9,42.9,150.1,44.2,149.8,45.9"/>
				<path style="clip-path:url(#SVGID_10_);fill:#FFFFFF;" d="M146.1,67h-5.4l2.4-15.3h5.4L146.1,67z M149.8,45.9
					c-0.3,1.7-1.8,3-3.5,3c-1.7,0-2.8-1.4-2.6-3c0.3-1.7,1.8-3,3.5-3C148.9,42.9,150.1,44.2,149.8,45.9"/>
				<polygon style="clip-path:url(#SVGID_10_);fill:#FFFFFF;" points="156,67 150.6,67 152.3,56.2 150.6,56.2 151.3,51.8 153,51.8 
					153.8,47.2 159.2,47.2 158.5,51.8 161.5,51.8 160.8,56.2 157.7,56.2 				"/>
				<path style="clip-path:url(#SVGID_10_);fill:#FFFFFF;" d="M169.4,51.8l-1.3,8.2c-0.3,1.9,0,3.3,2.2,3.3c2.2,0,2.9-1.4,3.2-3.3
					l1.3-8.2h5.4l-1.5,9.2c-0.8,5-4.6,6.6-9.2,6.6c-4.6,0-7.9-1.5-7.1-6.6l1.5-9.2H169.4z"/>
				<path style="clip-path:url(#SVGID_10_);fill:#FFFFFF;" d="M187.4,54.3L187.4,54.3c1.4-1.9,3.3-2.7,5.4-2.7h1l-0.8,5.2
					c-0.7-0.4-1.4-0.5-2.2-0.5c-3,0-4.1,2-4.5,4.6l-1,6.2H180l2.4-15.3h5.4L187.4,54.3z"/>
				<path style="clip-path:url(#SVGID_10_);fill:#FFFFFF;" d="M199.4,57.2c0.6-1.6,2-2.4,3.6-2.4c1.5,0,2.6,1,2.7,2.4H199.4z
					 M210.3,59.7c0.8-5.2-1.7-8.5-7-8.5c-5,0-8.9,3.1-9.7,8.2c-0.8,5.3,2.5,8.1,7.5,8.1c3.5,0,7.2-1.6,8.6-5.2h-5.2
					c-0.8,1-1.6,1.4-2.8,1.4c-2.2,0-3.2-1.2-2.9-3.4h11.4L210.3,59.7z"/>
			</g>
		</g>
	</g>
</g>
</svg>
